<svg width="27" height="27" viewBox="0 0 27 27" fill="none" xmlns="http://www.w3.org/2000/svg">
<path d="M16.3279 7.40017C15.8278 6.90025 15.1497 6.61941 14.4426 6.61941C13.7355 6.61941 13.0573 6.90025 12.5572 7.40017L6.8999 13.0575V13.0562C6.39998 13.5562 6.11914 14.2344 6.11914 14.9415C6.11914 15.6486 6.39998 16.3268 6.8999 16.8268L10.6719 20.6015C11.172 21.1014 11.8501 21.3823 12.5572 21.3823C13.2643 21.3823 13.9425 21.1014 14.4426 20.6015L20.0999 14.9442C20.5998 14.4441 20.8807 13.7659 20.8807 13.0588C20.8807 12.3517 20.5998 11.6736 20.0999 11.1735L16.3279 7.40017ZM16.3279 7.40017L17.9932 3.51617C18.1219 3.21558 18.3223 2.95112 18.5769 2.74596C18.8315 2.54079 19.1325 2.40117 19.4536 2.33932C19.7746 2.27748 20.106 2.2953 20.4186 2.39121C20.7311 2.48713 21.0154 2.65822 21.2466 2.8895L24.2012 5.8455C24.4515 6.09577 24.6309 6.40799 24.7211 6.75028C24.8113 7.09256 24.809 7.45264 24.7145 7.79376C24.62 8.13487 24.4367 8.4448 24.1832 8.69189C23.9298 8.93897 23.6153 9.11437 23.2719 9.20017L19.1572 10.2295" stroke="#E71E4B" stroke-width="2.66667" stroke-linecap="round" stroke-linejoin="round"/>
<path d="M9.72901 19.6576L8.69968 23.7723C8.61388 24.1157 8.43848 24.4301 8.1914 24.6836C7.94431 24.937 7.63438 25.1204 7.29327 25.2149C6.95215 25.3094 6.59207 25.3117 6.24979 25.2215C5.9075 25.1313 5.59529 24.9519 5.34501 24.7016L2.38901 21.7469C2.15773 21.5158 1.98664 21.2315 1.89072 20.9189C1.79481 20.6063 1.77699 20.275 1.83884 19.9539C1.90068 19.6329 2.0403 19.3318 2.24547 19.0773C2.45064 18.8227 2.71509 18.6223 3.01568 18.4936L6.89968 16.8296" stroke="#E71E4B" stroke-width="2.66667" stroke-linecap="round" stroke-linejoin="round"/>
</svg>
