<svg width="27" height="28" viewBox="0 0 27 28" fill="none" xmlns="http://www.w3.org/2000/svg">
<path d="M13.5 13.3335L11.5 10.0002M20.8333 14.6668C16.0958 12.9466 10.9042 12.9466 6.16667 14.6668L5.5 7.3335C10.1667 5.3335 16.8333 5.3335 21.5 7.3335L20.8333 14.6668Z" stroke="#E71E4B" stroke-width="2.66667" stroke-miterlimit="2" stroke-linecap="round" stroke-linejoin="round"/>
<path d="M25.5 24C25.5 24.5304 25.2893 25.0391 24.9142 25.4142C24.5391 25.7893 24.0304 26 23.5 26H3.5C2.96957 26 2.46086 25.7893 2.08579 25.4142C1.71071 25.0391 1.5 24.5304 1.5 24V4C1.5 3.46957 1.71071 2.96086 2.08579 2.58579C2.46086 2.21071 2.96957 2 3.5 2H23.5C24.0304 2 24.5391 2.21071 24.9142 2.58579C25.2893 2.96086 25.5 3.46957 25.5 4V24Z" stroke="#E71E4B" stroke-width="2.66667" stroke-miterlimit="2" stroke-linecap="round" stroke-linejoin="round"/>
<path d="M16.8332 13.6368C14.6245 13.2897 12.3752 13.2897 10.1665 13.6368" stroke="#E71E4B" stroke-width="2.66667" stroke-miterlimit="2" stroke-linecap="round" stroke-linejoin="round"/>
</svg>
