<svg width="25" height="28" viewBox="0 0 25 28" fill="none" xmlns="http://www.w3.org/2000/svg">
<path d="M1.8335 4.66667C1.8335 3.95942 2.11445 3.28115 2.61454 2.78105C3.11464 2.28095 3.79292 2 4.50016 2H20.5002C21.2074 2 21.8857 2.28095 22.3858 2.78105C22.8859 3.28115 23.1668 3.95942 23.1668 4.66667V23.3333C23.1668 24.0406 22.8859 24.7189 22.3858 25.219C21.8857 25.719 21.2074 26 20.5002 26H4.50016C3.79292 26 3.11464 25.719 2.61454 25.219C2.11445 24.7189 1.8335 24.0406 1.8335 23.3333V4.66667Z" stroke="#DFEFEE" stroke-width="2.66667" stroke-linecap="round" stroke-linejoin="round"/>
<path d="M7.1665 16.6666V16.6799M12.4998 16.6666V16.6799M17.8332 16.6666V16.6799M7.1665 20.6666V20.6799M12.4998 20.6666V20.6799M17.8332 20.6666V20.6799M7.1665 8.66659C7.1665 8.31296 7.30698 7.97383 7.55703 7.72378C7.80708 7.47373 8.14622 7.33325 8.49984 7.33325H16.4998C16.8535 7.33325 17.1926 7.47373 17.4426 7.72378C17.6927 7.97383 17.8332 8.31296 17.8332 8.66659V9.99992C17.8332 10.3535 17.6927 10.6927 17.4426 10.9427C17.1926 11.1928 16.8535 11.3333 16.4998 11.3333H8.49984C8.14622 11.3333 7.80708 11.1928 7.55703 10.9427C7.30698 10.6927 7.1665 10.3535 7.1665 9.99992V8.66659Z" stroke="#DFEFEE" stroke-width="2.66667" stroke-linecap="round" stroke-linejoin="round"/>
</svg>
