<svg width="25" height="28" viewBox="0 0 25 28" fill="none" xmlns="http://www.w3.org/2000/svg">
<path d="M1.38281 4.61222C1.38281 3.90413 1.6641 3.22505 2.16479 2.72436C2.66548 2.22367 3.34456 1.94238 4.05265 1.94238H20.0717C20.7798 1.94238 21.4588 2.22367 21.9595 2.72436C22.4602 3.22505 22.7415 3.90413 22.7415 4.61222V23.3011C22.7415 24.0092 22.4602 24.6882 21.9595 25.1889C21.4588 25.6896 20.7798 25.9709 20.0717 25.9709H4.05265C3.34456 25.9709 2.66548 25.6896 2.16479 25.1889C1.6641 24.6882 1.38281 24.0092 1.38281 23.3011V4.61222Z" stroke="#E71E4B" stroke-width="2.66984" stroke-linecap="round" stroke-linejoin="round"/>
<path d="M6.72217 16.6264V16.6398M12.0618 16.6264V16.6398M17.4015 16.6264V16.6398M6.72217 20.6312V20.6445M12.0618 20.6312V20.6445M17.4015 20.6312V20.6445M6.72217 8.6169C6.72217 8.26286 6.86281 7.92332 7.11316 7.67297C7.3635 7.42263 7.70304 7.28198 8.05709 7.28198H16.0666C16.4206 7.28198 16.7602 7.42263 17.0105 7.67297C17.2609 7.92332 17.4015 8.26286 17.4015 8.6169V9.95182C17.4015 10.3059 17.2609 10.6454 17.0105 10.8957C16.7602 11.1461 16.4206 11.2867 16.0666 11.2867H8.05709C7.70304 11.2867 7.3635 11.1461 7.11316 10.8957C6.86281 10.6454 6.72217 10.3059 6.72217 9.95182V8.6169Z" stroke="#E71E4B" stroke-width="2.66984" stroke-linecap="round" stroke-linejoin="round"/>
</svg>
