<svg width="290" height="244" viewBox="0 0 290 244" fill="none" xmlns="http://www.w3.org/2000/svg">
<path d="M152.569 174.878C152.569 174.878 168.438 225.442 191.232 223.492C214.025 221.542 272.792 178.778 272.792 178.778L258.268 144.285L201.586 166.137L190.694 151.681L152.569 174.878Z" fill="white"/>
<path d="M151.696 174.811C152.368 177.03 153.175 179.249 154.049 181.401C155.999 186.578 158.285 191.688 160.773 196.664C163.664 202.581 167.16 208.162 171.262 213.339C174.826 217.71 179.263 222.08 184.71 224.03C187.063 224.904 189.618 225.24 192.173 225.039C194.527 224.77 196.813 224.232 199.032 223.559C204.814 221.677 210.462 219.323 215.841 216.432C222.229 213.205 228.415 209.708 234.533 206.01C240.585 202.379 246.502 198.681 252.352 194.781C256.991 191.688 261.631 188.595 266.203 185.435C268.556 183.821 270.842 182.208 273.128 180.527L273.465 180.325C273.868 180.056 273.734 179.316 273.532 178.913L268.623 167.213L260.824 148.723L259.008 144.419C258.807 143.949 258.201 142.537 257.462 142.806L251.814 144.957L238.299 150.202L221.893 156.522L207.705 161.969L202.999 163.784C202.259 163.986 201.519 164.255 200.78 164.658C200.78 164.658 200.712 164.658 200.712 164.726L201.654 165.196L192.173 152.488L190.828 150.673C190.694 150.471 190.223 150 189.887 150.202L176.977 158.069L156.47 170.508L151.763 173.399C150.821 173.937 152.435 176.896 153.242 176.425L166.152 168.558L186.66 156.052L191.366 153.16L190.425 152.69L199.973 165.398L201.318 167.213C201.519 167.482 201.923 167.818 202.259 167.684L207.907 165.532L221.422 160.288L237.828 153.967L252.016 148.521L256.655 146.706C257.395 146.437 258.134 146.168 258.874 145.831C258.874 145.831 258.941 145.831 258.941 145.764L257.395 144.151L262.303 155.85L270.103 174.341L271.918 178.644L271.985 177.232C270.439 178.375 268.892 179.451 267.279 180.594C263.244 183.418 259.21 186.175 255.108 188.931C249.528 192.63 243.947 196.26 238.232 199.824C232.113 203.589 225.994 207.22 219.674 210.582C214.026 213.675 208.176 216.432 202.192 218.853C197.821 220.534 192.846 222.349 188.072 221.946C182.76 221.542 178.188 218.247 174.624 214.684C172.607 212.599 170.724 210.313 169.043 207.893C168.102 206.548 167.228 205.203 166.421 203.858C166.017 203.186 165.614 202.514 165.143 201.774C164.942 201.438 164.74 201.102 164.605 200.833L164.135 200.026C162.655 197.336 161.243 194.579 159.966 191.823C159.361 190.545 158.756 189.2 158.218 187.923C158.083 187.654 157.949 187.318 157.882 187.049C157.814 186.914 157.68 186.578 157.814 186.847L157.613 186.309C157.344 185.704 157.142 185.166 156.873 184.561C155.663 181.535 154.52 178.509 153.511 175.484L153.377 175.08C153.242 174.542 152.637 173.467 152.032 173.467C151.427 173.467 151.628 174.475 151.696 174.811Z" fill="#000005"/>
<path d="M235.609 103.875C235.609 103.875 256.521 193.638 272.187 196.126C287.854 198.614 283.954 187.856 276.961 170.979C269.968 154.102 244.35 100.983 244.35 100.983L235.609 103.875Z" fill="#001965"/>
<path d="M233.995 103.606C234.601 106.363 235.34 109.052 236.013 111.742C237.694 118.398 239.442 125.055 241.324 131.712C243.678 140.116 246.233 148.454 248.99 156.724C251.545 164.591 254.503 172.256 257.932 179.787C259.277 182.746 260.824 185.704 262.572 188.461C263.849 190.545 265.396 192.495 267.144 194.109C269.497 196.126 272.321 196.462 275.347 196.731C278.507 197 283.08 196.933 284.357 193.302C284.828 191.688 284.895 189.94 284.492 188.259C284.088 185.973 283.483 183.687 282.609 181.468C280.995 176.896 279.113 172.391 277.163 167.886C273.666 159.885 269.968 151.95 266.27 144.016C262.168 135.208 258 126.4 253.831 117.659C251.343 112.414 248.788 107.102 246.3 101.858L245.964 101.118C245.829 100.782 244.821 100.715 244.552 100.647C243.947 100.513 243.342 100.446 242.669 100.58L233.995 103.471C233.727 103.539 235.071 103.942 235.139 103.942C235.811 104.144 236.551 104.211 237.223 104.077L245.897 101.185L242.669 100.647C244.417 104.278 246.166 107.976 247.914 111.675C251.814 119.878 255.714 128.013 259.546 136.217C263.513 144.621 267.413 153.093 271.246 161.566C272.658 164.659 274.002 167.819 275.347 170.979C277.432 176.022 279.718 181.199 280.928 186.511C281.533 189.335 282.071 193.437 279.113 195.185C277.566 195.992 275.818 196.261 274.07 196.059C273.599 196.059 273.061 195.992 272.658 195.924C272.658 195.924 271.918 195.79 272.389 195.857C272.994 195.992 271.851 195.723 272.792 195.924C272.456 195.857 273.128 195.992 272.792 195.924C272.59 195.924 272.658 195.857 272.725 195.924L272.456 195.857L271.985 195.588C270.237 194.445 268.691 192.966 267.548 191.285C265.799 188.864 264.253 186.309 262.975 183.62C259.546 176.627 256.52 169.432 254.033 162.036C251.141 153.833 248.586 145.563 246.166 137.225C244.149 130.165 242.199 123.105 240.383 115.978C239.442 112.212 238.433 108.447 237.559 104.614C237.492 104.413 237.492 104.278 237.425 104.077C237.357 103.74 236.08 103.606 235.811 103.606C235.542 103.606 233.928 103.404 233.995 103.606Z" fill="#001965"/>
<path d="M279.515 163.313C280.793 163.851 290.341 164.591 287.651 171.853C284.961 179.115 278.977 182.947 274.607 179.518C270.236 176.089 279.515 163.313 279.515 163.313Z" fill="white"/>
<path d="M279.314 163.919C279.852 164.12 280.39 164.255 280.995 164.389L281.735 164.524L281.869 164.591C282.071 164.658 281.6 164.524 281.802 164.591L282.34 164.725C282.676 164.793 282.945 164.86 283.214 164.994L283.55 165.129L283.954 165.263C284.088 165.331 284.559 165.532 284.155 165.331C284.29 165.398 284.424 165.465 284.559 165.532L284.828 165.667C284.626 165.532 285.029 165.801 284.828 165.667C285.029 165.801 285.164 165.868 285.298 166.003C285.097 165.868 285.5 166.205 285.5 166.205C285.567 166.272 285.635 166.339 285.702 166.406C285.903 166.675 286.105 166.944 286.24 167.28C286.509 168.02 286.643 168.827 286.509 169.567C286.172 171.92 284.828 174.273 283.416 176.089C282.138 177.702 280.39 179.249 278.373 179.787C277.969 179.854 277.633 179.921 277.23 179.921C277.095 179.921 276.826 179.921 276.759 179.921L276.423 179.854C276.625 179.854 276.154 179.787 276.356 179.854C276.557 179.921 275.885 179.652 276.154 179.787C276.019 179.72 275.885 179.585 275.75 179.518C275.616 179.383 275.482 179.249 275.414 179.047C274.809 177.971 275.011 176.492 275.28 175.349C275.683 173.668 276.356 172.122 277.095 170.575C278.238 168.289 279.583 166.07 281.13 163.986C281.533 163.381 278.642 161.834 278.037 162.708C276.557 164.725 275.213 166.944 274.07 169.163C273.195 170.777 272.523 172.525 272.12 174.341C271.783 175.82 271.716 177.501 272.657 178.711C274.002 180.526 276.759 181.602 278.978 181.67C281.264 181.67 283.416 180.728 285.029 179.114C287.047 177.165 288.593 174.744 289.4 172.054C290.072 170.373 289.803 168.424 288.728 166.944C287.383 165.196 285.231 164.187 283.214 163.515C282.34 163.246 281.466 163.044 280.592 162.843L279.718 162.641C279.314 162.574 279.919 162.708 279.718 162.641C279.516 162.574 279.18 162.439 279.852 162.708C279.516 162.574 278.306 162.103 278.037 162.641C277.768 163.179 278.978 163.784 279.314 163.919Z" fill="#000005"/>
<path d="M273.666 149.597C275.347 150.269 287.517 151.547 284.357 160.086C281.196 168.625 273.733 172.928 267.95 168.692C262.168 164.456 273.666 149.597 273.666 149.597Z" fill="white"/>
<path d="M272.321 150.538C273.397 150.941 274.607 151.076 275.683 151.412C277.431 151.816 279.045 152.555 280.591 153.497C282.138 154.438 283.146 155.984 283.415 157.733C283.617 160.355 282.071 163.112 280.659 165.196C279.919 166.272 279.045 167.28 277.969 168.087C277.297 168.625 276.423 169.029 275.548 169.23C273.262 169.701 270.909 169.096 269.161 167.549C266.471 164.994 268.69 160.086 269.968 157.396C270.976 155.446 272.052 153.564 273.262 151.681C273.666 151.076 274.069 150.471 274.54 149.866L274.943 149.328C275.011 149.193 275.28 148.924 274.943 149.328C275.28 148.857 275.212 148.521 274.54 148.655C273.733 148.79 272.993 149.26 272.456 149.866C270.573 152.286 268.959 154.909 267.547 157.598C266.471 159.548 265.664 161.7 265.127 163.919C264.79 165.599 264.79 167.617 265.933 168.961C267.48 170.777 270.304 171.516 272.657 171.248C275.75 170.844 278.641 169.365 280.86 167.213C283.281 164.927 285.096 162.036 286.105 158.808C286.777 156.791 286.374 154.64 285.029 153.026C283.617 151.412 281.465 150.471 279.448 149.798C278.036 149.328 276.49 149.193 275.078 148.655C274.473 148.454 273.531 148.992 273.061 149.328C272.859 149.529 271.783 150.336 272.321 150.538Z" fill="#000005"/>
<path d="M263.445 134.132C263.445 134.132 272.455 134.804 274.808 142.806C277.162 150.807 268.219 160.22 262.705 156.993C257.192 153.765 265.933 142.671 265.933 142.671" fill="white"/>
<path d="M263.983 135.544C266.068 135.745 268.085 136.418 269.9 137.561C271.447 138.435 272.59 139.847 273.262 141.461C274.069 143.478 274.136 145.697 273.464 147.781C272.321 151.479 269.161 155.581 265.127 156.186C264.387 156.32 263.58 156.253 262.908 155.984C262.773 155.917 262.639 155.85 262.504 155.782C262.437 155.782 262.235 155.581 262.37 155.715C262.504 155.85 262.303 155.648 262.303 155.648C262.101 155.446 262.303 155.648 262.303 155.715C262.101 155.312 262.235 155.782 262.168 155.446C262.101 155.11 262.168 155.513 262.101 155.177C262.034 155.043 262.034 154.841 262.034 154.707C262.034 154.37 262.034 154.034 262.101 153.698C262.235 152.891 262.37 152.151 262.706 151.345C263.378 149.529 264.252 147.848 265.328 146.234C265.866 145.36 266.404 144.553 266.875 143.948C267.682 142.94 265.395 140.519 264.79 141.326C262.975 143.612 261.496 146.167 260.42 148.857C259.747 150.605 259.277 152.555 259.815 154.37C260.487 156.656 262.37 158.472 264.723 158.943C269.295 159.817 273.464 155.446 275.212 151.681C276.355 149.26 276.692 146.571 276.154 143.948C275.481 141.259 274.069 138.838 272.052 136.956C269.497 134.602 266.27 133.123 262.773 132.719C261.227 132.585 262.84 135.409 263.916 135.544H263.983Z" fill="#000005"/>
<path d="M166.487 243.932C166.487 243.932 170.118 207.354 168.235 169.903L201.182 156.657C201.182 156.657 165.747 95.2677 140.197 91.5024C136.902 90.3593 133.406 90.2248 130.044 91.0989C80.3544 87.468 37.8596 134.199 37.8596 134.199L66.9739 165.398C49.5591 197 37.0527 226.652 37.0527 226.652" fill="white"/>
<path d="M168.168 243.933C168.639 239.092 168.975 234.251 169.311 229.342C170.051 217.575 170.454 205.876 170.522 194.109C170.522 186.04 170.387 177.972 169.984 169.836L169.446 170.374L180.607 165.869L198.224 158.742L202.325 157.061C202.594 156.926 202.931 156.657 202.729 156.321C201.519 154.169 200.174 152.085 198.896 150.001C195.669 144.823 192.307 139.78 188.81 134.805C184.306 128.417 179.599 122.097 174.556 116.18C169.58 110.33 164.336 104.682 158.419 99.7734C153.51 95.739 147.929 92.1082 141.676 90.7634C140.668 90.5617 139.726 90.2255 138.718 90.0238C137.104 89.6876 135.423 89.5531 133.809 89.6203C133.002 89.6203 132.128 89.6876 131.322 89.822C130.851 89.8893 130.447 89.9565 129.977 90.091C129.842 90.091 129.641 90.1582 129.506 90.1582C130.178 90.091 129.439 90.091 129.304 90.091C128.027 90.0238 126.817 89.9565 125.539 89.9565C120.496 89.8893 115.453 90.2927 110.478 91.1668C100.862 92.8478 91.449 95.8735 82.6408 100.11C74.7066 103.875 67.1087 108.38 59.9814 113.49C54.4006 117.457 49.0887 121.693 44.0459 126.265C41.4908 128.551 39.003 130.905 36.6496 133.393L36.1789 133.931C35.9772 134.132 36.1789 134.401 36.3134 134.536L46.1975 145.159L61.7968 161.902L65.4277 165.802L65.2932 165.196C59.1073 176.493 53.1903 187.99 47.6095 199.623C43.9786 207.153 40.4822 214.751 37.1203 222.417C36.5151 223.761 35.9772 225.106 35.3721 226.451C34.9014 227.594 38.1961 227.863 38.5995 226.921C40.2805 222.954 42.0959 218.987 43.8441 215.02C48.2819 205.203 52.9213 195.521 57.8298 185.906C61.2589 179.115 64.8226 172.324 68.5207 165.667C68.6552 165.398 68.5207 165.264 68.3862 165.062L58.5021 154.438L42.9028 137.696L39.2719 133.796L39.4064 134.401C39.003 134.805 39.4736 134.334 39.6081 134.2C39.9443 133.863 40.2805 133.527 40.6167 133.191C41.827 131.981 43.0373 130.77 44.3148 129.56C48.6853 125.458 53.2575 121.559 58.0315 117.928C64.5536 112.952 71.412 108.447 78.6737 104.547C86.8096 100.11 95.4834 96.6131 104.426 94.2598C109.066 93.0495 113.839 92.2426 118.681 91.8392C121.034 91.6375 123.455 91.5702 125.808 91.6375C127.085 91.6375 128.363 91.7047 129.573 91.772C131.12 91.8392 132.734 91.3013 134.28 91.2341C135.826 91.2341 137.306 91.4358 138.718 91.9064C139.256 92.0409 139.726 92.1754 140.264 92.3099L140.668 92.3771C140.735 92.3771 140.937 92.4443 140.668 92.3771L141.004 92.4443C141.676 92.5788 142.281 92.7805 142.954 92.9823C143.492 93.184 144.097 93.3857 144.635 93.5874C147.392 94.7977 150.081 96.3442 152.502 98.1596C158.486 102.463 163.663 107.775 168.572 113.221C173.682 119.071 178.523 125.122 183.028 131.443C186.861 136.755 190.491 142.134 193.988 147.58C195.803 150.471 197.619 153.362 199.367 156.321L199.569 156.724L200.039 155.985L188.878 160.49L171.261 167.617L167.16 169.298C166.958 169.365 166.622 169.634 166.689 169.836C167.361 183.62 167.361 197.404 166.958 211.12C166.622 220.399 166.151 229.678 165.411 238.957C165.277 240.638 165.143 242.252 165.008 243.933C164.739 244.941 168.101 245.076 168.168 243.933Z" fill="#000005"/>
<path d="M68.1842 179.115C68.1842 179.115 107.586 169.836 127.287 172.996C146.988 176.156 151.157 194.983 147.458 198.546C143.76 202.11 133.675 186.175 133.675 186.175C133.675 186.175 131.456 208.027 123.32 204.329C123.32 204.329 120.563 215.087 112.36 209.775C112.36 209.775 103.148 217.911 100.122 213.204C97.0968 208.498 103.35 204.262 103.35 204.262C103.35 204.262 35.3717 250.118 10.7624 219.794C-20.7052 180.997 39.8095 136.687 39.8095 136.687L82.8422 166.003L68.1842 179.115Z" fill="white"/>
<path d="M68.8574 180.661C74.1692 179.383 78.9432 178.509 84.3895 177.5C94.6098 175.685 105.032 174.206 115.386 173.937C120.093 173.802 124.8 173.87 129.439 174.945C131.927 175.551 134.348 176.492 136.634 177.769C137.575 178.307 138.517 178.98 139.391 179.652C140.198 180.257 140.87 180.93 141.61 181.669C142.349 182.476 143.022 183.283 143.627 184.157C143.761 184.359 143.896 184.493 144.03 184.695L144.232 185.031C144.434 185.3 144.03 184.695 144.299 185.098C144.568 185.502 144.77 185.905 144.971 186.309C145.442 187.116 145.778 187.99 146.115 188.864C146.182 188.998 146.316 189.469 146.182 189.133C146.249 189.334 146.316 189.536 146.383 189.738C146.518 190.141 146.652 190.545 146.72 190.948C146.787 191.352 146.854 191.688 146.921 192.091L146.989 192.629L147.056 192.898C147.123 193.234 147.056 192.629 147.056 192.965C147.123 193.638 147.123 194.243 147.056 194.915C147.056 195.05 146.989 195.184 146.989 195.319C146.989 195.453 147.056 194.982 146.989 195.251C146.989 195.319 146.989 195.386 146.989 195.453C146.921 195.722 146.854 195.991 146.787 196.26C146.72 196.394 146.72 196.462 146.652 196.596C146.585 196.731 146.854 196.327 146.652 196.596C146.518 196.798 146.383 196.932 146.316 197.134C146.182 197.336 146.451 197 146.451 197C146.451 197 146.383 197.067 146.316 197.134C146.249 197.201 145.846 197.403 146.249 197.201L145.913 197.336C145.644 197.403 146.182 197.336 145.98 197.336C145.913 197.336 145.778 197.336 145.711 197.336C145.644 197.403 145.308 197.269 145.778 197.336C145.711 197.336 145.644 197.336 145.577 197.336C145.509 197.336 145.039 197.201 145.308 197.269C145.577 197.336 145.039 197.201 145.039 197.134C144.837 197.067 144.702 196.932 144.501 196.865C144.097 196.663 144.568 196.932 144.299 196.731L143.828 196.395C143.492 196.126 143.156 195.857 142.82 195.52L142.349 195.05C142.282 194.982 141.878 194.579 142.147 194.848C141.744 194.445 141.408 194.108 141.072 193.638C138.853 191.15 136.836 188.46 135.02 185.636C134.886 185.502 134.818 185.3 134.684 185.098C134.281 184.426 133.474 184.224 132.801 184.561C132.398 184.762 132.129 185.166 132.129 185.636C132.129 185.838 132.062 186.04 132.062 186.174C132.062 186.309 131.994 186.578 131.994 186.779C131.994 186.981 131.927 187.048 131.927 187.183C131.927 187.317 131.86 187.788 131.86 187.519C131.86 187.25 131.86 187.721 131.793 187.855C131.725 187.99 131.725 188.191 131.725 188.393L131.524 189.603C131.389 190.478 131.188 191.352 130.986 192.293C130.582 194.176 130.044 196.058 129.305 197.874C129.036 198.681 128.632 199.487 128.229 200.227C128.027 200.563 127.826 200.899 127.624 201.168C127.489 201.303 127.355 201.505 127.22 201.639L127.086 201.841C126.884 202.043 127.22 201.706 127.019 201.908C126.75 202.177 126.481 202.379 126.145 202.58C125.876 202.715 126.077 202.648 126.145 202.58C126.077 202.648 125.943 202.648 125.876 202.715C125.674 202.782 125.54 202.849 125.338 202.917C125.002 202.984 125.136 202.984 125.338 202.917C125.271 202.917 125.136 202.917 125.069 202.984H124.867C124.531 202.984 124.8 202.984 124.8 202.984C124.598 202.984 124.396 202.917 124.195 202.849L123.993 202.782C124.396 202.917 123.859 202.715 123.791 202.715C123.186 202.379 122.379 202.58 122.043 203.186C121.976 203.253 121.976 203.32 121.909 203.387C121.774 203.925 121.572 204.396 121.371 204.867C121.371 204.934 121.303 205.068 121.236 205.136C121.102 205.539 121.303 205.068 121.169 205.27C121.035 205.472 120.9 205.741 120.766 206.01C120.497 206.548 120.16 207.018 119.824 207.489C119.152 208.363 118.278 209.035 117.202 209.304C117.067 209.372 117 209.372 117.135 209.304L116.866 209.372H116.395C116.126 209.372 115.79 209.372 115.521 209.304C114.647 209.103 113.84 208.766 113.1 208.296C112.562 207.96 111.823 207.691 111.285 208.161C109.402 209.909 107.183 211.321 104.83 212.33C104.158 212.666 103.418 212.801 102.678 212.868C102.611 212.868 102.208 212.868 102.477 212.868C102.275 212.868 102.14 212.801 101.939 212.801C101.67 212.733 101.872 212.801 101.939 212.801C101.872 212.801 101.804 212.733 101.67 212.666C101.535 212.599 101.468 212.532 101.334 212.397C101.603 212.666 101.266 212.263 101.199 212.196C101.266 212.33 100.93 211.725 100.93 211.658C100.796 211.321 100.728 210.918 100.728 210.582C100.796 209.708 101.065 208.834 101.603 208.161C102.342 207.018 103.284 206.077 104.359 205.404C105.839 204.396 103.754 201.774 102.275 202.782C100.191 204.194 98.1062 205.472 95.9545 206.749C94.8787 207.422 93.8029 208.027 92.6598 208.699C91.2478 209.506 90.441 209.977 89.029 210.716C86.0705 212.33 83.0447 213.944 80.019 215.423C73.0934 218.852 65.8989 221.811 58.5026 224.231C51.1736 226.585 43.7102 228.333 35.9777 228.467C32.4813 228.602 29.0521 228.198 25.6902 227.391C24.1437 227.055 22.6645 226.585 21.1852 225.912C20.4456 225.576 19.6387 225.24 18.9664 224.836C18.6302 224.635 18.294 224.433 17.9578 224.231C17.6216 224.03 17.8905 224.164 17.9578 224.231L17.6888 224.097L17.0837 223.693C16.4113 223.223 15.7389 222.685 15.0665 222.147C14.7303 221.878 14.4614 221.609 14.1252 221.34C13.9907 221.206 13.8562 221.071 13.6545 220.937L13.3183 220.6C11.8391 218.987 10.4943 217.306 9.28401 215.49C6.93066 211.994 5.18245 208.094 4.17388 203.925C2.35843 196.327 3.36701 188.46 6.05656 181.064C8.7461 173.668 12.9821 166.877 17.8233 160.691C22.0593 155.312 26.6988 150.336 31.7417 145.697C34.4985 143.142 37.3897 140.654 40.4155 138.368L40.8189 138.031L39.0035 137.897L53.6615 147.848L76.7915 163.582L82.1034 167.213L81.8344 164.725L68.9919 176.156L67.1092 177.837C65.7644 179.047 67.8488 181.669 69.1936 180.459L82.0361 169.028L83.8516 167.415C84.4567 166.742 84.4567 165.734 83.7843 165.061C83.7171 164.994 83.6499 164.927 83.5826 164.927L68.9919 154.976L45.8618 139.242L40.5499 135.678C40.012 135.207 39.2724 135.207 38.7345 135.544C36.5156 137.157 34.4312 138.973 32.3468 140.721C27.3712 145.091 22.6645 149.731 18.3612 154.774C13.0494 160.758 8.61162 167.482 5.11521 174.609C1.68605 182.005 -0.465587 190.209 0.206799 198.412C0.610231 202.782 1.68605 207.018 3.50149 210.985C5.38417 215.221 7.93924 219.054 11.0994 222.416C16.2096 227.66 23.0007 230.619 30.1952 231.426C37.9949 232.3 45.7946 231.157 53.3253 229.274C61.125 227.19 68.7229 224.5 76.0519 221.071C82.3723 218.247 88.4911 215.02 94.4753 211.59C97.6355 209.775 100.796 207.892 103.821 205.875L104.225 205.606L102.14 202.984C98.7785 205.27 96.2235 209.64 98.5096 213.54C101.199 218.18 106.578 215.826 110.007 213.54C111.15 212.801 112.226 211.994 113.235 211.12L111.419 210.985C113.235 212.128 115.319 213.07 117.538 212.801C119.219 212.532 120.766 211.658 121.841 210.38C123.186 208.834 124.127 207.018 124.598 205.068L122.715 205.808C124.396 206.682 126.414 206.548 128.027 205.472C129.439 204.396 130.582 202.917 131.322 201.236C132.936 197.538 134.079 193.638 134.549 189.671C134.684 188.662 134.886 187.586 134.953 186.578L132.331 187.116C133.81 189.402 135.424 191.688 137.172 193.772C138.517 195.453 139.929 197 141.542 198.412C142.82 199.487 144.434 200.698 146.249 200.631C149.342 200.631 150.082 196.932 150.014 194.512C149.813 190.814 148.67 187.183 146.652 184.09C144.097 179.921 140.399 176.559 136.029 174.34C131.188 171.92 125.876 171.113 120.564 170.911C109.671 170.44 98.7113 171.92 88.0204 173.668C83.5826 174.407 79.1449 175.214 74.7744 176.088C72.421 176.559 70.0004 177.03 67.6471 177.635L67.3109 177.702C66.504 177.904 66.3696 179.047 66.7057 179.719C67.1764 180.392 68.0505 180.795 68.8574 180.661Z" fill="#000005"/>
<path d="M114.646 193.974C114.713 194.109 114.781 194.243 114.781 194.378C114.848 194.445 114.982 194.848 114.848 194.579C114.915 194.781 114.982 194.983 115.05 195.185C115.386 196.328 115.587 197.538 115.587 198.748C115.655 202.782 113.638 206.346 110.814 209.036C109.805 209.977 112.831 211.322 113.772 210.448C116.865 207.489 118.882 203.657 118.815 199.353C118.815 197.471 118.411 195.655 117.672 193.907C117.201 193.235 116.394 192.831 115.587 192.898C114.982 192.898 114.31 193.302 114.646 193.974Z" fill="#000005"/>
<path d="M123.992 188.998C125.337 193.839 124.598 199.084 121.908 203.387C121.37 204.194 124.127 206.077 124.665 205.27C127.489 200.698 128.229 195.184 126.749 190.074C126.413 189.334 125.741 188.796 125.001 188.595C124.598 188.326 123.724 188.258 123.992 188.998Z" fill="#000005"/>
<path d="M36.0451 183.754C37.4571 183.351 38.8691 183.082 40.3483 182.947C43.0379 182.611 45.6602 182.275 48.3497 181.939C54.1995 181.266 60.1165 180.661 65.9662 180.123C67.7144 179.989 69.4626 179.787 71.2781 179.653C71.9505 179.585 70.4712 176.829 69.5971 176.896C65.4283 177.097 61.1923 177.635 57.0235 178.039C51.1065 178.644 45.2567 179.249 39.3397 180.056C37.5243 180.19 35.7761 180.527 34.0951 180.997C33.5572 181.199 35.1037 184.09 36.0451 183.754Z" fill="#000005"/>
<path d="M170.993 166.743L170.119 136.351C170.052 134.603 166.757 134.468 166.757 136.351L167.631 166.743C167.698 168.491 170.993 168.625 170.993 166.743Z" fill="#000005"/>
<path d="M246.434 162.305C246.434 162.305 259.075 121.424 248.317 120.281C237.559 119.138 233.189 145.227 232.045 148.589C232.045 148.589 225.456 152.556 225.456 160.423" fill="white"/>
<path d="M247.914 162.103C248.99 158.607 249.931 155.043 250.738 151.547C252.285 145.092 253.697 138.435 254.1 131.778C254.369 129.022 254.167 126.332 253.562 123.643C253.092 121.827 252.016 120.012 250.066 119.406C247.107 118.532 243.813 120.012 241.661 122.029C239.106 124.315 237.425 127.408 236.08 130.501C234.668 133.796 233.525 137.157 232.651 140.587C232.248 142.066 231.844 143.545 231.508 145.024C231.373 145.63 231.239 146.167 231.105 146.773C231.037 147.042 230.97 147.243 230.903 147.445L230.836 147.781C230.768 147.916 230.768 148.05 230.768 147.916C230.701 148.185 230.634 148.521 230.499 148.79L231.239 147.983C226.801 150.74 223.977 155.581 223.843 160.825C223.843 162.17 227.003 161.094 227.003 159.884C227.003 157.396 227.743 154.908 229.087 152.824C229.558 152.084 230.163 151.345 230.768 150.74C231.037 150.471 231.306 150.202 231.575 150L231.911 149.731C232.046 149.664 232.449 149.328 232.046 149.597L232.718 149.126C233.256 148.79 233.592 148.252 233.66 147.579C233.996 146.436 234.265 145.293 234.534 144.083C235.341 140.587 236.349 137.157 237.559 133.728C238.77 130.232 240.249 126.668 242.67 123.777C243.14 123.172 243.611 122.701 244.216 122.231L244.418 122.096C244.149 122.298 244.351 122.163 244.418 122.096L244.821 121.827L245.023 121.693C244.754 121.827 245.359 121.491 245.023 121.693L245.561 121.424C245.83 121.289 245.561 121.424 245.494 121.424L245.763 121.356C245.897 121.356 245.964 121.289 246.099 121.289C246.233 121.289 246.368 121.289 246.502 121.222H246.771C247.04 121.222 246.637 121.222 246.838 121.222C247.04 121.222 247.242 121.222 247.444 121.222C247.511 121.222 247.914 121.289 247.578 121.222C247.78 121.289 248.049 121.356 248.25 121.424C248.318 121.424 248.587 121.558 248.385 121.491L248.654 121.693C248.856 121.827 249.057 121.962 249.192 122.163C249.326 122.298 249.461 122.432 249.528 122.567C249.662 122.768 249.797 123.037 249.931 123.239C250.402 124.248 250.738 125.391 250.873 126.534C251.209 129.761 251.142 133.056 250.738 136.351C250.335 140.116 249.595 143.881 248.788 147.647C247.712 152.555 246.435 157.464 245.023 162.305C245.023 162.372 244.956 162.439 244.956 162.574C244.485 163.986 247.645 163.112 247.914 162.103Z" fill="#000005"/>
<path d="M111.418 73.6843C111.418 73.6843 89.9021 75.4998 87.4143 66.557C84.9265 57.6143 98.2397 61.178 98.2397 61.178C98.2397 61.178 84.523 41.9477 106.308 41.1409C106.308 41.1409 89.9021 25.9449 105.367 15.1195C120.832 4.29413 147.862 15.3885 147.862 15.3885C147.862 15.3885 149.207 -3.7745 170.79 1.06667C192.374 5.90785 185.852 16.7333 185.852 16.7333C185.852 16.7333 199.703 19.6245 199.367 26.2811C199.03 32.9378 188.272 34.2825 188.272 34.2825C188.272 34.2825 182.288 52.5714 163.528 47.7302L142.617 69.2466C142.617 69.2466 148.198 78.5255 140.197 86.5941C132.195 94.6628 109.132 85.72 111.418 73.6843Z" fill="#000005"/>
<path d="M111.352 73.3482H110.949H110.478H110.209H110.075C109.739 73.3482 110.546 73.3482 110.209 73.3482C109.671 73.3482 109.134 73.4155 108.596 73.4155H107.654H106.78C103.351 73.4155 99.9891 73.012 96.6944 72.2052C93.8032 71.4655 90.5085 69.9863 89.2309 67.095C88.693 65.7502 88.3568 63.8676 89.0965 62.5228C89.3654 61.9849 89.8361 61.5815 90.374 61.2453C90.5757 61.1108 90.8447 61.0435 91.0464 60.9091C91.2481 60.8418 91.4498 60.7746 91.6515 60.7746C91.9205 60.7074 91.6515 60.7746 91.5843 60.7746C91.6515 60.7746 92.1222 60.7074 91.6515 60.7746C91.786 60.7746 92.1894 60.7746 91.8532 60.7746C91.9877 60.7746 92.5929 60.7746 92.1894 60.7746H92.7273H93.0635L93.6014 60.8418C93.9376 60.9091 94.3411 60.9091 94.6773 60.9763C95.0135 61.0435 96.022 61.2453 96.6944 61.3797C97.2996 61.5142 97.972 61.5142 98.5771 61.3797C98.6443 61.3797 99.9219 61.1108 99.7874 60.9763C98.4426 59.0264 97.2996 56.942 96.5599 54.7231C95.3497 51.3612 94.8117 47.0579 97.6358 44.3011C99.7874 42.2167 102.948 41.5444 105.772 41.4771C105.973 41.4771 108.125 41.2082 107.789 40.9392C101.939 35.5601 97.2323 25.945 102.813 18.7505C106.713 13.7076 113.302 11.2198 119.488 10.7491C125.204 10.3457 131.053 11.2198 136.634 12.5645C139.862 13.3714 143.089 14.38 146.182 15.5903C146.585 15.7247 149.409 15.8592 149.477 15.2541C149.88 9.87499 153.108 4.36143 157.949 1.94084C158.89 1.47017 159.899 1.13397 160.974 0.865017C162.05 0.596063 163.126 0.528829 164.269 0.596067C168.035 0.797783 171.8 1.67188 175.296 3.08389C179.196 4.56314 183.836 7.05097 184.777 11.4887C185.18 13.3042 184.911 15.2541 184.037 16.8678C184.105 16.935 184.172 17.0023 184.306 17.0023C188.004 17.8091 191.904 19.1539 194.863 21.5073C196.745 22.9865 198.023 25.0709 197.418 27.5587C196.813 30.0466 194.392 31.7275 192.039 32.7361C190.963 33.2068 189.82 33.543 188.677 33.8119L188.341 33.8792C188.072 33.9464 188.542 33.8119 188.206 33.8792L187.735 33.9464C187.601 33.9464 187.467 34.0136 187.399 34.0136C187.198 34.0809 187.87 33.9464 187.668 33.9464C187.467 33.9464 186.592 34.0136 186.458 34.3498C185.786 36.2997 184.777 38.1824 183.567 39.8634C181.146 43.3598 177.717 46.3183 173.615 47.5958C172.943 47.7975 172.271 47.932 171.598 48.0665C171.06 48.1337 170.522 48.201 169.984 48.201C168.236 48.1337 166.488 47.932 164.807 47.4614C164.269 47.3941 163.664 47.3941 163.126 47.4614C162.79 47.5286 162.05 47.5286 161.781 47.7975L154.721 55.0593L143.425 66.6244L140.803 69.3139L140.736 69.3811C142.013 71.6 142.618 74.1551 142.618 76.7101C142.618 81.2151 140.131 86.1908 136.029 88.2752C135.357 88.6114 134.617 88.8803 133.81 89.082L133.474 89.1493C133.407 89.1493 132.869 89.2165 133.07 89.2165C133.003 89.2165 132.398 89.2837 132.667 89.2837H132.331H132.196C130.515 89.2837 128.767 89.082 127.153 88.6786C123.455 87.8045 119.959 86.0563 117.068 83.5012C114.244 80.9462 112.227 77.3825 112.966 73.4827C113.033 73.281 109.739 73.0793 109.604 73.7516C108.327 80.7445 115.118 85.9218 120.9 88.1407C124.464 89.5527 128.297 90.1578 132.129 89.9561C135.491 89.7544 139.055 89.0148 141.543 86.5942C144.904 83.3668 146.451 78.66 145.711 74.0206C145.442 72.6086 145.039 71.3311 144.501 70.0535C144.367 69.7846 144.232 69.5156 144.098 69.2467C144.03 69.1122 143.963 69.3811 144.098 69.1794C144.434 68.7087 144.837 68.3053 145.308 67.9019L147.661 65.4813L154.183 58.7574C157.68 55.1938 161.311 51.6974 164.673 47.9993C164.74 47.932 164.807 47.8648 164.874 47.7975L161.849 48.0665C168.102 49.6802 175.296 49.344 180.877 45.7804C184.239 43.4943 186.996 40.3341 188.744 36.6359C189.147 35.8291 189.484 35.0895 189.753 34.2154L188.542 34.6188C190.291 34.3498 191.971 33.9464 193.585 33.4085C196.006 32.6016 198.628 31.2569 199.973 28.9707C203.335 23.4572 196.476 19.6918 192.173 18.0781C190.559 17.4729 188.811 16.935 187.13 16.5316L187.399 16.6661C188.206 15.1868 188.542 13.4386 188.273 11.8249C187.601 7.25268 183.029 4.56314 179.196 2.94942C172.54 0.259874 164.538 -1.15214 157.545 0.93226C153.511 2.14255 150.082 4.96657 148.199 8.73193C147.056 10.8163 146.384 13.1697 146.182 15.523L149.477 15.1868C140.803 11.8249 131.591 10.0767 122.312 10.0767C115.32 10.2112 107.99 11.6232 102.477 16.1282C99.9891 18.1453 97.972 20.8349 97.3668 24.0623C96.8961 26.6846 97.2323 29.3742 98.2409 31.862C99.7202 35.4929 101.939 38.7203 104.763 41.3426L106.78 40.8047C101.67 41.0065 93.9376 41.8133 92.5256 47.8648C91.6515 51.5629 93.2653 55.53 95.0135 58.6902C95.4841 59.5643 96.022 60.3712 96.5599 61.2453L99.6529 60.8418C97.3668 60.2367 95.0135 60.035 92.6601 60.1022C89.5671 60.2367 85.1966 60.9091 85.3983 64.9434C85.6001 68.6415 88.5586 70.8604 91.786 72.0707C95.4841 73.4155 99.5184 73.8861 103.486 74.0206C106.108 74.1551 108.797 74.0878 111.42 73.8861C111.621 73.8861 113.101 73.8189 113.101 73.4827C113.101 73.1465 111.487 73.3482 111.352 73.3482Z" fill="#000005"/>
<path d="M185.583 97.2182C199.569 82.4257 186.256 37.4431 186.256 37.4431C170.925 39.3258 147.728 22.3145 147.728 22.3145C153.981 37.0397 138.718 62.0524 138.718 62.0524C133.473 48.8737 119.757 48.403 120.16 61.1111C120.564 73.8192 132.666 75.7019 132.666 75.7019C132.666 75.7019 127.018 97.151 128.027 102.194C129.036 107.237 154.653 133.191 163.865 109.052C172.136 107.438 179.733 103.337 185.583 97.2182Z" fill="white"/>
<path d="M187.063 97.4198C190.089 94.1923 191.702 89.9563 192.576 85.653C193.518 80.6774 193.854 75.6345 193.585 70.5243C193.114 61.1782 191.702 51.9665 189.416 42.8893C188.946 40.9394 188.475 38.9895 187.937 37.1068C187.735 36.4344 186.727 36.4344 186.121 36.4344C184.709 36.5689 183.297 36.5689 181.953 36.4344C180.272 36.2327 178.591 35.9637 176.977 35.5603C173.682 34.6862 170.455 33.5431 167.295 32.0639C161.983 29.6433 156.94 26.8193 152.099 23.5246C151.09 22.8522 150.082 22.1798 149.14 21.4402C148.401 20.9023 145.644 21.2385 146.182 22.516C148.737 28.6347 147.527 35.8965 145.778 42.0152C144.097 47.7305 141.811 53.244 138.987 58.4214C138.584 59.2283 138.113 60.0351 137.71 60.7747C137.575 60.9765 137.441 61.2454 137.306 61.4471C137.037 61.985 137.239 61.5816 137.306 61.4471H140.467C138.786 57.2111 135.894 53.3113 131.591 51.4958C128.162 50.0166 123.859 50.3528 121.102 53.0423C118.076 56.0008 118.076 61.2454 119.085 65.078C120.093 68.7761 122.514 71.8691 125.741 73.8863C127.624 75.0966 129.708 75.9034 131.86 76.2396L130.986 75.3655C129.91 79.4671 128.969 83.5686 128.095 87.7374C127.422 90.7631 126.817 93.8561 126.481 96.9491C126.279 98.6973 125.876 100.916 126.481 102.664C127.153 104.278 128.162 105.69 129.305 106.968C130.986 108.918 132.801 110.733 134.818 112.347C138.987 115.843 144.165 119.071 149.678 119.676C152.502 120.012 155.393 119.541 157.949 118.264C160.705 116.717 162.924 114.297 164.269 111.405C164.74 110.531 165.076 109.657 165.479 108.783L163.933 109.657C165.681 109.388 167.429 108.985 169.177 108.38C173.077 107.102 176.843 105.287 180.272 103.001C182.76 101.32 185.046 99.3697 187.13 97.2181C187.668 96.6801 186.861 96.2095 186.39 96.1422C185.584 96.0078 184.777 96.2095 184.172 96.7474C178.994 102.194 172.338 105.959 165.009 107.707L164.672 107.775C164.269 107.842 164.874 107.707 164.672 107.775L164.202 107.842L163.798 107.909C163.26 107.976 162.521 108.178 162.252 108.783C161.176 111.607 159.63 114.498 157.142 116.381C156.738 116.717 156.268 116.986 155.797 117.188C155.528 117.322 155.259 117.457 154.99 117.524C154.587 117.726 155.259 117.457 154.856 117.591C154.654 117.659 154.519 117.726 154.318 117.726L153.914 117.86C153.444 117.995 154.25 117.793 153.78 117.86C153.511 117.928 153.242 117.928 152.973 117.995C152.906 117.995 152.435 117.995 152.838 117.995H152.301C151.964 117.995 151.628 117.995 151.292 117.995C150.821 117.995 151.628 118.062 151.157 117.995L150.754 117.928C150.485 117.86 150.149 117.86 149.88 117.793C149.342 117.726 148.737 117.524 148.199 117.39C146.989 116.986 145.846 116.516 144.77 115.978C142.349 114.767 140.13 113.288 138.046 111.54C136.163 109.993 134.415 108.38 132.801 106.564C131.658 105.287 130.65 103.875 129.843 102.395C129.843 102.328 129.776 102.261 129.776 102.194C129.708 101.992 129.843 102.395 129.776 102.194C129.708 101.992 129.708 101.992 129.641 101.858C129.574 101.521 129.507 101.185 129.507 100.849C129.439 99.7731 129.507 98.7645 129.641 97.756C129.91 94.8647 130.448 92.0407 131.053 89.2167C131.994 84.5772 133.07 80.005 134.281 75.5C134.415 74.9621 133.81 74.6931 133.406 74.6259L133.07 74.5587L132.734 74.4914C132.465 74.4242 133.003 74.5587 132.801 74.4914L132.465 74.4242C131.994 74.2897 131.591 74.1552 131.12 73.9535C130.65 73.7518 129.91 73.4828 129.708 73.3484C126.884 72.0036 124.598 69.7175 123.253 66.9607C121.64 63.5988 121.102 58.8248 122.85 55.3957C123.186 54.7233 123.59 54.1854 124.128 53.6475C124.531 53.244 125.002 52.9751 125.472 52.7734C125.741 52.6389 125.338 52.7734 125.674 52.7061C125.809 52.6389 125.943 52.6389 126.145 52.5716C125.741 52.6389 126.279 52.5716 126.346 52.5716H126.615C126.414 52.5716 126.481 52.5716 126.615 52.5716H127.288H127.422C127.826 52.6389 128.162 52.7061 128.364 52.7734C132.6 54.0509 135.558 58.0852 137.172 62.0523C137.575 63.0609 139.794 62.9264 140.332 62.0523C142.147 58.9593 143.828 55.7319 145.24 52.4372C147.997 46.184 150.283 39.5274 150.888 32.669C151.292 28.9037 150.754 25.1383 149.409 21.6419L146.451 22.7177C149.342 24.8021 152.368 26.752 155.461 28.5002C161.512 31.9966 167.9 35.2241 174.691 36.9723C178.524 38.0481 182.491 38.4515 186.39 38.0481L184.642 37.3757C186.189 42.6203 187.399 47.9994 188.273 53.3785C189.147 58.2869 189.82 63.2626 190.156 68.2382C190.559 73.3484 190.425 78.4585 189.685 83.5014C188.946 88.2081 187.466 93.1165 184.104 96.6801C183.566 97.2853 184.373 97.6887 184.844 97.756C185.584 98.0922 186.458 97.8904 187.063 97.4198Z" fill="#000005"/>
<path d="M153.779 76.6426C153.51 76.5754 154.317 76.9116 154.048 76.7098L153.645 76.5081C153.443 76.3736 153.241 76.3064 153.04 76.1719L152.905 76.1047L152.838 76.0374C152.636 75.903 153.107 76.1719 153.04 76.1719C152.905 76.1047 152.771 75.9702 152.636 75.903C152.367 75.7013 152.165 75.4995 151.896 75.2978L151.829 75.2306C151.829 75.2306 152.098 75.4995 151.964 75.3651C151.897 75.2978 151.829 75.2306 151.829 75.2306C151.695 75.0961 151.56 74.9616 151.493 74.8272C151.426 74.7599 151.359 74.6927 151.359 74.6254C151.359 74.5582 151.157 74.3565 151.291 74.5582C151.426 74.7599 151.291 74.491 151.224 74.491L151.09 74.222C151.022 74.0875 150.955 73.9531 150.888 73.7513C150.888 73.6841 150.888 73.6841 150.821 73.6169C150.753 73.4824 150.888 73.7513 150.821 73.7513C150.753 73.7513 150.753 73.4824 150.753 73.4151C150.686 73.2134 150.686 72.9445 150.686 72.7428C150.686 72.6755 150.686 72.541 150.686 72.4066C150.686 72.2721 150.686 72.4066 150.686 72.4738C150.686 72.541 150.686 72.3393 150.686 72.2721C150.753 71.7342 150.955 71.1963 151.224 70.7256C151.291 70.3894 151.224 70.0532 150.955 69.8515C150.686 69.5153 150.35 69.3136 149.947 69.1791C149.274 68.9774 148.333 68.9774 147.997 69.717C147.526 70.6584 147.324 71.6669 147.392 72.7428C147.526 73.6841 147.862 74.5582 148.4 75.3651C149.341 76.6426 150.484 77.6512 151.896 78.3236C152.3 78.5253 152.703 78.727 153.107 78.8615C153.712 79.0632 154.788 79.0632 155.057 78.3236C155.326 77.5839 154.317 76.8443 153.779 76.6426Z" fill="#000005"/>
<path d="M181.482 59.1612C181.482 59.1612 181.146 61.5818 183.566 61.7163C185.987 61.8508 186.121 58.8923 184.104 58.1527C182.087 57.413 181.482 59.1612 181.482 59.1612Z" fill="#000005"/>
<path d="M170.253 56.9418C169.984 56.2022 169.514 55.5298 168.908 54.9246C168.236 54.2522 167.429 53.7143 166.555 53.3781C166.152 53.2437 165.748 53.1764 165.345 53.2437C164.941 53.2437 164.538 53.3109 164.134 53.4454C164 53.5126 163.597 53.6471 163.664 53.8488C163.731 54.0505 164 54.185 164.134 54.2522C163.798 54.1178 164 54.185 164.134 54.2522L164.336 54.3195L164.672 54.5212C164.874 54.6557 165.143 54.8574 165.345 54.9919L165.143 54.8574C165.95 55.5298 166.555 56.3366 166.958 57.3452C167.026 57.5469 167.564 57.6814 167.765 57.6814C168.169 57.7486 168.639 57.7486 169.043 57.7486C169.379 57.7486 169.715 57.6142 170.051 57.4797L170.186 57.3452C170.32 57.2107 170.32 57.0763 170.253 56.9418Z" fill="#000005"/>
<path d="M254.032 92.3606C270.994 75.398 270.994 47.896 254.032 30.9333C237.069 13.9706 209.567 13.9706 192.604 30.9333C175.642 47.896 175.642 75.398 192.604 92.3607C209.567 109.323 237.069 109.323 254.032 92.3606Z" fill="white"/>
<path d="M260.89 77.7185C260.016 79.8029 259.075 81.8873 257.864 83.8372L257.461 84.5096L257.259 84.7786C257.326 84.7113 257.595 84.2406 257.259 84.7113C256.923 85.182 256.654 85.5854 256.385 86.0561C255.78 86.9302 255.108 87.8043 254.368 88.6784C254.032 89.0818 253.696 89.4853 253.359 89.8887C253.158 90.0904 253.023 90.2921 252.821 90.4938C252.889 90.4266 253.359 89.9559 252.956 90.3594L252.62 90.6955C251.88 91.4352 251.073 92.242 250.266 92.9144C249.863 93.2506 249.459 93.5868 249.056 93.923L248.451 94.3937L248.182 94.5954L247.98 94.7299C247.779 94.8643 247.846 94.7971 248.249 94.5281C248.048 94.4609 247.173 95.2678 246.972 95.4695C246.568 95.7384 246.098 96.0746 245.694 96.3436C244.82 96.9487 243.879 97.4866 242.937 97.9573C242.198 98.3607 243.408 97.6884 242.87 98.0246L242.198 98.3607C241.727 98.6297 241.189 98.8314 240.718 99.1004C239.71 99.571 238.769 99.9072 237.76 100.311L237.02 100.58L236.684 100.714C236.281 100.849 237.289 100.512 236.819 100.647C236.281 100.781 235.743 100.983 235.205 101.118C234.196 101.386 233.188 101.655 232.179 101.857C231.641 101.924 231.171 102.059 230.633 102.126L229.893 102.261L229.422 102.328C229.019 102.395 229.893 102.261 229.49 102.328C227.338 102.53 225.186 102.664 222.968 102.597C222.43 102.597 221.892 102.53 221.354 102.53L220.547 102.462C220.547 102.462 220.143 102.462 220.412 102.462C220.681 102.462 220.076 102.395 220.076 102.395C219 102.261 217.925 102.126 216.916 101.924C214.697 101.521 212.478 100.916 210.394 100.109C209.856 99.9072 209.385 99.7055 208.847 99.5038L208.511 99.3693L208.377 99.3021L207.503 98.8987C206.494 98.428 205.485 97.8901 204.477 97.3522C202.594 96.2763 200.712 95.0661 199.031 93.7213C195.669 91.1662 192.777 88.0732 190.424 84.6441C189.214 82.8959 188.071 81.0132 187.129 79.1305C186.659 78.1892 186.188 77.1806 185.785 76.172C185.65 75.7686 185.381 75.0962 185.247 74.8945C185.112 74.6928 184.91 73.8859 184.776 73.4825C183.498 69.3809 182.759 65.1449 182.692 60.8416C182.692 58.8245 182.826 56.8073 183.095 54.7901C183.431 52.5713 183.902 50.3524 184.574 48.2008C184.642 47.9318 184.709 47.6629 184.843 47.3939C184.91 47.2594 185.112 46.587 184.978 46.9905C185.179 46.4526 185.381 45.8474 185.583 45.3095C185.986 44.2337 186.457 43.2251 186.995 42.1493C187.533 41.0735 188.003 40.1994 188.541 39.258L188.945 38.5857C189.012 38.5184 189.281 38.115 189.079 38.3839C188.878 38.6529 189.079 38.3839 189.146 38.3167C189.483 37.846 189.752 37.3754 190.088 36.9047C190.693 36.0306 191.365 35.1565 192.105 34.2824C192.441 33.879 192.777 33.4755 193.114 33.0721C193.181 33.0049 193.786 32.3325 193.45 32.7359C193.114 33.1393 193.786 32.3997 193.853 32.3325C194.593 31.5256 195.4 30.786 196.207 30.1136C196.543 29.7774 196.946 29.4412 197.282 29.1723L197.888 28.7016L198.224 28.4326C198.627 28.0964 198.089 28.5671 198.022 28.5671C198.224 28.6343 199.098 27.7602 199.3 27.6258C199.77 27.2896 200.241 27.0206 200.712 26.6844C201.653 26.0793 202.527 25.5414 203.468 25.0707C204.006 24.8017 202.796 25.4069 203.536 25.0035L204.208 24.6673C204.679 24.3983 205.217 24.1966 205.687 23.9949C206.696 23.5242 207.637 23.1208 208.646 22.7846L209.251 22.5829C209.385 22.5156 209.52 22.4484 209.654 22.4484C209.654 22.4484 209.049 22.6501 209.385 22.5156C209.923 22.3812 210.461 22.1794 210.999 22.045C212.008 21.776 213.083 21.5071 214.159 21.3053C214.697 21.1709 215.168 21.1036 215.706 21.0364L216.445 20.9019L216.782 20.8347C216.244 20.9019 217.118 20.7674 216.782 20.8347C217.857 20.7002 218.933 20.633 220.009 20.5657C221.085 20.4985 222.161 20.4985 223.304 20.5657C223.774 20.5657 224.312 20.633 224.783 20.633L225.59 20.7002C225.657 20.7002 226.06 20.7674 225.59 20.7002L226.06 20.7674C228.279 21.0364 230.498 21.4398 232.65 22.045C233.726 22.3139 234.801 22.7173 235.877 23.0535C236.348 23.2553 236.819 23.3897 237.289 23.5915L237.76 23.7932C237.491 23.6587 237.693 23.7932 237.76 23.7932C238.029 23.9276 238.365 24.0621 238.634 24.1966C240.718 25.1379 242.668 26.2138 244.551 27.4913C246.367 28.7016 248.115 30.0464 249.796 31.5256C251.275 32.8704 252.687 34.3496 253.964 35.9633C256.654 39.258 258.806 42.9562 260.419 46.9232C261.226 48.8059 261.831 50.6886 262.369 52.6385C262.84 54.7229 263.176 56.8073 263.378 58.8917C263.445 59.9675 263.512 61.0433 263.512 62.1192C263.512 62.6571 263.512 63.195 263.512 63.7329C263.512 63.8001 263.512 64.2708 263.512 64.0018C263.512 63.7329 263.512 64.1363 263.512 64.1363C263.512 64.4053 263.512 64.7415 263.445 65.0776C263.311 67.2965 262.974 69.5154 262.504 71.667C262.302 72.6756 262.033 73.6842 261.697 74.6928C261.63 74.9617 261.562 75.2307 261.428 75.4996C261.361 75.6341 261.361 75.7686 261.293 75.9703C261.293 75.9703 261.159 76.3737 261.226 76.1048C261.293 75.8358 261.159 76.3065 261.159 76.3737C261.159 76.441 261.092 76.5754 261.025 76.7099C261.226 77.1134 261.092 77.4495 260.89 77.7185C260.419 78.3909 260.621 79.3995 261.293 79.8701C261.63 80.1391 262.1 80.2063 262.504 80.1391C263.983 80.0719 265.933 79.0633 266.538 77.584C275.884 54.5884 264.857 28.4326 241.929 19.0865C237.693 17.4055 233.255 16.3297 228.75 15.9263C209.049 14.3125 190.357 24.9362 181.616 42.62C177.447 51.1593 176.035 60.7744 177.514 70.1205C178.993 79.0633 183.162 87.3336 189.415 93.8558C196.072 100.714 204.746 105.286 214.226 106.9C223.64 108.447 233.322 107.169 241.996 103.135C250.939 98.9659 258.469 92.1748 263.512 83.7027C264.655 81.7528 265.664 79.6684 266.538 77.584C266.874 77.0461 266.874 76.3737 266.605 75.8358C266.202 75.3652 265.597 75.0962 264.992 75.1634C263.445 75.1634 261.495 76.2393 260.89 77.7185Z" fill="#001965"/>
<path d="M222.766 54.3194C222.766 54.3194 214.428 49.7471 210.73 58.0847C207.032 66.4223 217.32 71.0618 222.766 64.9431C228.212 58.8243 222.766 54.3194 222.766 54.3194Z" fill="#000005"/>
<path d="M247.846 47.865C249.393 54.5216 248.586 61.4472 245.56 67.5659C245.224 68.2383 246.569 68.3055 246.905 68.3055C247.577 68.2383 248.519 68.0366 248.855 67.3642C251.948 61.111 252.755 53.9837 251.208 47.1926C250.872 46.1168 247.645 46.722 247.846 47.865Z" fill="#001965"/>
<path d="M242.468 78.4581L244.216 75.4996C244.283 75.3651 244.35 75.1634 244.149 75.0962C244.014 75.0962 243.947 75.0962 243.812 75.1634C243.678 75.1634 243.476 75.2307 243.342 75.2979C242.938 75.4996 242.602 75.7013 242.199 75.9703C241.93 76.172 241.661 76.3737 241.459 76.7099L239.711 79.6684C239.644 79.8029 239.576 80.0046 239.778 80.0718C239.913 80.0718 239.98 80.0718 240.114 80.0718C240.249 80.0046 240.45 80.0046 240.585 79.9374C240.988 79.7357 241.325 79.5339 241.728 79.265C241.997 78.996 242.266 78.7271 242.468 78.4581Z" fill="#001965"/>
<path d="M168.235 84.6439C168.235 84.6439 193.046 102.26 204.948 90.8299C216.849 79.3993 198.224 62.1863 177.178 66.0189" fill="white"/>
<path d="M167.026 85.788C169.782 87.7379 172.674 89.4188 175.699 90.8981C181.28 93.6549 187.466 95.941 193.719 96.0082C200.174 96.0082 207.033 92.5791 209.386 86.3259C211.672 80.2744 208.108 74.4246 203.402 70.6593C197.149 65.7509 188.677 63.8009 180.877 64.4733C179.734 64.5406 178.591 64.7423 177.448 64.944C176.641 65.1457 175.968 65.6836 175.767 66.4905C175.632 67.2974 176.439 67.3646 176.977 67.2301C184.575 65.8181 192.442 67.2973 198.964 71.3317C203.402 74.1557 208.108 79.1986 207.1 84.9139C206.898 86.1914 206.428 87.3344 205.688 88.4103C204.948 89.4861 204.007 90.4947 202.931 91.2343C201.923 91.9739 200.847 92.5118 199.636 92.848C198.359 93.1842 197.014 93.3859 195.669 93.4531C189.954 93.5876 184.239 91.5032 179.129 89.0826C175.767 87.5362 172.539 85.6535 169.446 83.5019C168.438 82.8295 165.815 84.9139 167.026 85.788Z" fill="#000005"/>
</svg>
