<svg width="23" height="28" viewBox="0 0 23 28" fill="none" xmlns="http://www.w3.org/2000/svg">
<path d="M7.49984 4.6665H4.83317C4.12593 4.6665 3.44765 4.94746 2.94755 5.44755C2.44746 5.94765 2.1665 6.62593 2.1665 7.33317V23.3332C2.1665 24.0404 2.44746 24.7187 2.94755 25.2188C3.44765 25.7189 4.12593 25.9998 4.83317 25.9998H18.1665C18.8737 25.9998 19.552 25.7189 20.0521 25.2188C20.5522 24.7187 20.8332 24.0404 20.8332 23.3332V7.33317C20.8332 6.62593 20.5522 5.94765 20.0521 5.44755C19.552 4.94746 18.8737 4.6665 18.1665 4.6665H15.4998" stroke="#E71E4B" stroke-width="2.66667" stroke-linecap="round" stroke-linejoin="round"/>
<path d="M8.83333 16.6667H14.1667M11.5 14V19.3333M7.5 4.66667C7.5 3.95942 7.78095 3.28115 8.28105 2.78105C8.78115 2.28095 9.45942 2 10.1667 2H12.8333C13.5406 2 14.2189 2.28095 14.719 2.78105C15.219 3.28115 15.5 3.95942 15.5 4.66667C15.5 5.37391 15.219 6.05219 14.719 6.55229C14.2189 7.05238 13.5406 7.33333 12.8333 7.33333H10.1667C9.45942 7.33333 8.78115 7.05238 8.28105 6.55229C7.78095 6.05219 7.5 5.37391 7.5 4.66667Z" stroke="#E71E4B" stroke-width="2.66667" stroke-linecap="round" stroke-linejoin="round"/>
</svg>
