<svg width="587" height="429" viewBox="0 0 587 429" fill="none" xmlns="http://www.w3.org/2000/svg">
<rect width="587" height="428.379" transform="translate(0 0.303955)" fill="white"/>
<path d="M269.775 89.709C315.904 92.1388 355.249 127.76 355.249 127.76C355.249 127.76 389.167 115.21 445.246 124.521C404.996 142.737 390.975 277.532 390.975 277.532C390.975 277.532 353.892 277.535 322.689 294.13C319.071 194.146 269.775 89.709 269.775 89.709Z" fill="#FAB544"/>
<path d="M551.295 172.286C565.185 140.429 486.851 125.533 425.799 123.105C364.746 120.677 361.354 134.035 358.64 169.86C355.927 205.684 353.891 270.652 381.025 276.723C408.16 282.797 440.044 282.187 475.998 237.255C511.952 192.325 540.442 197.183 551.295 172.286Z" fill="#E71E4B"/>
<path d="M349.144 163.18C342.36 116.625 307.085 85.4593 239.928 87.8859C172.769 90.3174 116.232 121.906 112.395 202.647C109.682 259.725 116.464 289.474 120.536 344.119C123.017 377.443 152.92 370.872 183.624 346.55C242.641 299.796 290.411 316.665 328.794 290.689C356.606 271.863 357.284 219.041 349.144 163.18Z" fill="#E71E4B"/>
<rect x="329.951" y="293.419" width="179.414" height="49.5476" rx="15.707" fill="#E1EFFA"/>
<path d="M353.527 324.693H347.071V313.478H353.527V315.426H349.443V317.892H353.244V319.84H349.443V322.73H353.527V324.693ZM361.656 322.148C361.656 322.724 361.52 323.217 361.248 323.625C360.976 324.023 360.567 324.327 360.023 324.536C359.478 324.745 358.803 324.85 357.997 324.85C357.4 324.85 356.887 324.808 356.457 324.724C356.028 324.651 355.599 324.525 355.169 324.347V322.416C355.63 322.625 356.128 322.798 356.662 322.934C357.196 323.07 357.667 323.138 358.075 323.138C358.536 323.138 358.861 323.07 359.049 322.934C359.248 322.798 359.348 322.62 359.348 322.4C359.348 322.253 359.306 322.122 359.222 322.007C359.149 321.892 358.981 321.761 358.719 321.614C358.457 321.468 358.049 321.279 357.494 321.049C356.96 320.819 356.52 320.593 356.175 320.374C355.829 320.143 355.573 319.871 355.405 319.557C355.237 319.232 355.154 318.829 355.154 318.347C355.154 317.552 355.463 316.955 356.08 316.557C356.698 316.159 357.52 315.96 358.546 315.96C359.08 315.96 359.588 316.012 360.07 316.117C360.552 316.222 361.049 316.394 361.562 316.635L360.855 318.316C360.573 318.19 360.3 318.08 360.039 317.986C359.777 317.892 359.52 317.819 359.269 317.766C359.028 317.714 358.777 317.688 358.515 317.688C358.169 317.688 357.908 317.735 357.73 317.829C357.562 317.923 357.478 318.065 357.478 318.253C357.478 318.389 357.52 318.515 357.604 318.63C357.698 318.735 357.871 318.85 358.122 318.976C358.384 319.101 358.766 319.269 359.269 319.478C359.761 319.677 360.185 319.887 360.541 320.107C360.897 320.316 361.17 320.583 361.358 320.908C361.557 321.222 361.656 321.635 361.656 322.148ZM367.092 322.981C367.354 322.981 367.605 322.955 367.846 322.902C368.087 322.85 368.328 322.787 368.569 322.714V324.457C368.317 324.562 368.003 324.651 367.626 324.724C367.26 324.808 366.857 324.85 366.417 324.85C365.904 324.85 365.443 324.766 365.035 324.599C364.637 324.431 364.317 324.143 364.076 323.735C363.846 323.316 363.731 322.74 363.731 322.007V317.876H362.616V316.887L363.904 316.101L364.579 314.295H366.071V316.117H368.474V317.876H366.071V322.007C366.071 322.332 366.165 322.578 366.354 322.745C366.542 322.902 366.789 322.981 367.092 322.981ZM373.824 315.96C374.62 315.96 375.301 316.112 375.866 316.415C376.442 316.719 376.887 317.159 377.201 317.735C377.515 318.311 377.672 319.018 377.672 319.855V320.986H372.143C372.164 321.646 372.358 322.164 372.725 322.541C373.102 322.918 373.62 323.107 374.28 323.107C374.835 323.107 375.337 323.054 375.788 322.95C376.238 322.834 376.704 322.662 377.185 322.431V324.238C376.767 324.447 376.322 324.599 375.85 324.693C375.39 324.798 374.829 324.85 374.17 324.85C373.311 324.85 372.552 324.693 371.892 324.379C371.232 324.054 370.714 323.567 370.337 322.918C369.96 322.269 369.772 321.452 369.772 320.468C369.772 319.463 369.939 318.63 370.274 317.97C370.62 317.3 371.096 316.798 371.704 316.463C372.311 316.127 373.018 315.96 373.824 315.96ZM373.84 317.625C373.39 317.625 373.013 317.771 372.709 318.065C372.416 318.358 372.243 318.813 372.191 319.431H375.473C375.473 319.086 375.411 318.777 375.285 318.504C375.17 318.232 374.992 318.018 374.751 317.86C374.51 317.703 374.206 317.625 373.84 317.625ZM383.088 315.944C384.24 315.944 385.12 316.196 385.727 316.698C386.345 317.19 386.654 317.949 386.654 318.976V324.693H385.02L384.565 323.531H384.502C384.261 323.834 384.01 324.086 383.748 324.285C383.497 324.484 383.204 324.625 382.869 324.709C382.544 324.803 382.141 324.85 381.659 324.85C381.156 324.85 380.701 324.756 380.293 324.567C379.895 324.368 379.581 324.07 379.35 323.672C379.12 323.264 379.005 322.751 379.005 322.133C379.005 321.222 379.324 320.552 379.963 320.122C380.602 319.682 381.56 319.442 382.837 319.4L384.329 319.353V318.976C384.329 318.525 384.209 318.196 383.968 317.986C383.738 317.777 383.413 317.672 382.994 317.672C382.575 317.672 382.167 317.735 381.769 317.86C381.371 317.976 380.973 318.122 380.575 318.3L379.806 316.714C380.266 316.473 380.774 316.285 381.329 316.148C381.895 316.012 382.481 315.944 383.088 315.944ZM383.418 320.751C382.664 320.771 382.141 320.908 381.848 321.159C381.554 321.41 381.408 321.74 381.408 322.148C381.408 322.505 381.513 322.761 381.722 322.918C381.931 323.065 382.204 323.138 382.539 323.138C383.041 323.138 383.465 322.991 383.811 322.698C384.157 322.395 384.329 321.97 384.329 321.426V320.719L383.418 320.751ZM392.662 322.981C392.924 322.981 393.175 322.955 393.416 322.902C393.657 322.85 393.898 322.787 394.139 322.714V324.457C393.887 324.562 393.573 324.651 393.196 324.724C392.83 324.808 392.427 324.85 391.987 324.85C391.474 324.85 391.013 324.766 390.605 324.599C390.207 324.431 389.887 324.143 389.646 323.735C389.416 323.316 389.301 322.74 389.301 322.007V317.876H388.186V316.887L389.474 316.101L390.149 314.295H391.641V316.117H394.044V317.876H391.641V322.007C391.641 322.332 391.735 322.578 391.924 322.745C392.112 322.902 392.358 322.981 392.662 322.981ZM403.651 320.389C403.651 321.101 403.551 321.735 403.352 322.29C403.164 322.845 402.886 323.316 402.52 323.703C402.164 324.08 401.729 324.368 401.216 324.567C400.703 324.756 400.122 324.85 399.473 324.85C398.876 324.85 398.321 324.756 397.808 324.567C397.305 324.368 396.87 324.08 396.504 323.703C396.138 323.316 395.85 322.845 395.64 322.29C395.441 321.735 395.342 321.101 395.342 320.389C395.342 319.436 395.509 318.635 395.844 317.986C396.179 317.326 396.661 316.824 397.289 316.478C397.918 316.133 398.661 315.96 399.52 315.96C400.326 315.96 401.038 316.133 401.656 316.478C402.274 316.824 402.761 317.326 403.117 317.986C403.473 318.635 403.651 319.436 403.651 320.389ZM397.729 320.389C397.729 320.955 397.787 321.431 397.902 321.819C398.028 322.196 398.221 322.484 398.483 322.683C398.745 322.871 399.085 322.965 399.504 322.965C399.923 322.965 400.258 322.871 400.509 322.683C400.771 322.484 400.96 322.196 401.075 321.819C401.2 321.431 401.263 320.955 401.263 320.389C401.263 319.824 401.2 319.353 401.075 318.976C400.96 318.599 400.771 318.316 400.509 318.127C400.248 317.939 399.907 317.845 399.488 317.845C398.871 317.845 398.42 318.059 398.138 318.489C397.865 318.908 397.729 319.541 397.729 320.389ZM411.569 322.148C411.569 322.724 411.433 323.217 411.161 323.625C410.889 324.023 410.48 324.327 409.936 324.536C409.391 324.745 408.716 324.85 407.91 324.85C407.313 324.85 406.8 324.808 406.37 324.724C405.941 324.651 405.512 324.525 405.082 324.347V322.416C405.543 322.625 406.04 322.798 406.574 322.934C407.108 323.07 407.58 323.138 407.988 323.138C408.449 323.138 408.773 323.07 408.962 322.934C409.161 322.798 409.26 322.62 409.26 322.4C409.26 322.253 409.218 322.122 409.135 322.007C409.061 321.892 408.894 321.761 408.632 321.614C408.37 321.468 407.962 321.279 407.407 321.049C406.873 320.819 406.433 320.593 406.088 320.374C405.742 320.143 405.485 319.871 405.318 319.557C405.15 319.232 405.067 318.829 405.067 318.347C405.067 317.552 405.375 316.955 405.993 316.557C406.611 316.159 407.433 315.96 408.459 315.96C408.993 315.96 409.501 316.012 409.983 316.117C410.465 316.222 410.962 316.394 411.475 316.635L410.768 318.316C410.485 318.19 410.213 318.08 409.951 317.986C409.69 317.892 409.433 317.819 409.182 317.766C408.941 317.714 408.69 317.688 408.428 317.688C408.082 317.688 407.821 317.735 407.643 317.829C407.475 317.923 407.391 318.065 407.391 318.253C407.391 318.389 407.433 318.515 407.517 318.63C407.611 318.735 407.784 318.85 408.035 318.976C408.297 319.101 408.679 319.269 409.182 319.478C409.674 319.677 410.098 319.887 410.454 320.107C410.81 320.316 411.082 320.583 411.271 320.908C411.47 321.222 411.569 321.635 411.569 322.148ZM416.926 315.96C417.722 315.96 418.403 316.112 418.968 316.415C419.544 316.719 419.989 317.159 420.303 317.735C420.618 318.311 420.775 319.018 420.775 319.855V320.986H415.246C415.267 321.646 415.46 322.164 415.827 322.541C416.204 322.918 416.722 323.107 417.382 323.107C417.937 323.107 418.44 323.054 418.89 322.95C419.34 322.834 419.806 322.662 420.288 322.431V324.238C419.869 324.447 419.424 324.599 418.953 324.693C418.492 324.798 417.932 324.85 417.272 324.85C416.413 324.85 415.654 324.693 414.995 324.379C414.335 324.054 413.816 323.567 413.44 322.918C413.063 322.269 412.874 321.452 412.874 320.468C412.874 319.463 413.042 318.63 413.377 317.97C413.722 317.3 414.199 316.798 414.806 316.463C415.413 316.127 416.12 315.96 416.926 315.96ZM416.942 317.625C416.492 317.625 416.115 317.771 415.811 318.065C415.518 318.358 415.345 318.813 415.293 319.431H418.576C418.576 319.086 418.513 318.777 418.387 318.504C418.272 318.232 418.094 318.018 417.853 317.86C417.612 317.703 417.309 317.625 416.942 317.625ZM432.737 322.148C432.737 322.724 432.601 323.217 432.329 323.625C432.056 324.023 431.648 324.327 431.103 324.536C430.559 324.745 429.884 324.85 429.077 324.85C428.48 324.85 427.967 324.808 427.538 324.724C427.109 324.651 426.679 324.525 426.25 324.347V322.416C426.711 322.625 427.208 322.798 427.742 322.934C428.276 323.07 428.747 323.138 429.156 323.138C429.616 323.138 429.941 323.07 430.13 322.934C430.329 322.798 430.428 322.62 430.428 322.4C430.428 322.253 430.386 322.122 430.302 322.007C430.229 321.892 430.062 321.761 429.8 321.614C429.538 321.468 429.13 321.279 428.575 321.049C428.041 320.819 427.601 320.593 427.255 320.374C426.91 320.143 426.653 319.871 426.486 319.557C426.318 319.232 426.234 318.829 426.234 318.347C426.234 317.552 426.543 316.955 427.161 316.557C427.779 316.159 428.601 315.96 429.627 315.96C430.161 315.96 430.669 316.012 431.151 316.117C431.632 316.222 432.13 316.394 432.643 316.635L431.936 318.316C431.653 318.19 431.381 318.08 431.119 317.986C430.857 317.892 430.601 317.819 430.349 317.766C430.109 317.714 429.857 317.688 429.596 317.688C429.25 317.688 428.988 317.735 428.81 317.829C428.643 317.923 428.559 318.065 428.559 318.253C428.559 318.389 428.601 318.515 428.685 318.63C428.779 318.735 428.952 318.85 429.203 318.976C429.465 319.101 429.847 319.269 430.349 319.478C430.842 319.677 431.266 319.887 431.622 320.107C431.978 320.316 432.25 320.583 432.439 320.908C432.637 321.222 432.737 321.635 432.737 322.148ZM436.9 316.117V324.693H434.56V316.117H436.9ZM435.738 312.756C436.084 312.756 436.382 312.839 436.633 313.007C436.885 313.164 437.01 313.462 437.01 313.902C437.01 314.332 436.885 314.63 436.633 314.798C436.382 314.965 436.084 315.049 435.738 315.049C435.382 315.049 435.078 314.965 434.827 314.798C434.586 314.63 434.466 314.332 434.466 313.902C434.466 313.462 434.586 313.164 434.827 313.007C435.078 312.839 435.382 312.756 435.738 312.756ZM449.414 315.96C450.388 315.96 451.121 316.211 451.613 316.714C452.116 317.206 452.367 318.002 452.367 319.101V324.693H450.027V319.682C450.027 319.065 449.922 318.604 449.712 318.3C449.503 317.986 449.178 317.829 448.739 317.829C448.121 317.829 447.681 318.049 447.419 318.489C447.157 318.929 447.027 319.562 447.027 320.389V324.693H444.686V319.682C444.686 319.274 444.639 318.934 444.545 318.662C444.451 318.389 444.309 318.185 444.121 318.049C443.932 317.902 443.691 317.829 443.398 317.829C442.969 317.829 442.629 317.939 442.377 318.159C442.126 318.379 441.948 318.698 441.843 319.117C441.739 319.536 441.686 320.049 441.686 320.656V324.693H439.346V316.117H441.136L441.451 317.216H441.576C441.754 316.923 441.974 316.688 442.236 316.51C442.498 316.321 442.786 316.185 443.1 316.101C443.424 316.007 443.749 315.96 444.074 315.96C444.702 315.96 445.236 316.065 445.676 316.274C446.116 316.473 446.451 316.787 446.681 317.216H446.885C447.147 316.777 447.508 316.457 447.969 316.258C448.44 316.059 448.922 315.96 449.414 315.96ZM459.552 315.96C460.515 315.96 461.295 316.337 461.892 317.091C462.489 317.834 462.787 318.934 462.787 320.389C462.787 321.363 462.646 322.185 462.363 322.855C462.081 323.515 461.693 324.012 461.201 324.347C460.709 324.683 460.138 324.85 459.489 324.85C459.081 324.85 458.724 324.798 458.421 324.693C458.128 324.588 457.876 324.452 457.667 324.285C457.457 324.117 457.274 323.939 457.117 323.751H456.991C457.033 323.95 457.065 324.159 457.086 324.379C457.107 324.588 457.117 324.798 457.117 325.007V328.463H454.777V316.117H456.677L457.007 317.232H457.117C457.274 317.002 457.463 316.792 457.683 316.604C457.902 316.405 458.164 316.248 458.468 316.133C458.782 316.017 459.143 315.96 459.552 315.96ZM458.798 317.829C458.389 317.829 458.065 317.913 457.824 318.08C457.583 318.248 457.405 318.504 457.29 318.85C457.185 319.185 457.128 319.609 457.117 320.122V320.374C457.117 320.929 457.169 321.4 457.274 321.787C457.379 322.164 457.557 322.452 457.808 322.651C458.06 322.85 458.4 322.95 458.829 322.95C459.185 322.95 459.478 322.85 459.709 322.651C459.939 322.452 460.112 322.159 460.227 321.772C460.342 321.384 460.4 320.913 460.4 320.358C460.4 319.52 460.269 318.892 460.007 318.473C459.756 318.044 459.353 317.829 458.798 317.829ZM467.057 324.693H464.716V312.756H467.057V324.693ZM473.036 315.96C473.832 315.96 474.513 316.112 475.078 316.415C475.654 316.719 476.099 317.159 476.413 317.735C476.727 318.311 476.884 319.018 476.884 319.855V320.986H471.356C471.377 321.646 471.57 322.164 471.937 322.541C472.314 322.918 472.832 323.107 473.492 323.107C474.047 323.107 474.549 323.054 475 322.95C475.45 322.834 475.916 322.662 476.398 322.431V324.238C475.979 324.447 475.534 324.599 475.062 324.693C474.602 324.798 474.041 324.85 473.382 324.85C472.523 324.85 471.764 324.693 471.104 324.379C470.445 324.054 469.926 323.567 469.549 322.918C469.172 322.269 468.984 321.452 468.984 320.468C468.984 319.463 469.151 318.63 469.486 317.97C469.832 317.3 470.308 316.798 470.916 316.463C471.523 316.127 472.23 315.96 473.036 315.96ZM473.052 317.625C472.602 317.625 472.225 317.771 471.921 318.065C471.628 318.358 471.455 318.813 471.403 319.431H474.685C474.685 319.086 474.623 318.777 474.497 318.504C474.382 318.232 474.204 318.018 473.963 317.86C473.722 317.703 473.418 317.625 473.052 317.625ZM484.767 322.148C484.767 322.724 484.63 323.217 484.358 323.625C484.086 324.023 483.678 324.327 483.133 324.536C482.589 324.745 481.913 324.85 481.107 324.85C480.51 324.85 479.997 324.808 479.568 324.724C479.138 324.651 478.709 324.525 478.28 324.347V322.416C478.74 322.625 479.238 322.798 479.772 322.934C480.306 323.07 480.777 323.138 481.185 323.138C481.646 323.138 481.971 323.07 482.159 322.934C482.358 322.798 482.458 322.62 482.458 322.4C482.458 322.253 482.416 322.122 482.332 322.007C482.259 321.892 482.091 321.761 481.829 321.614C481.568 321.468 481.159 321.279 480.604 321.049C480.07 320.819 479.63 320.593 479.285 320.374C478.939 320.143 478.683 319.871 478.515 319.557C478.348 319.232 478.264 318.829 478.264 318.347C478.264 317.552 478.573 316.955 479.191 316.557C479.808 316.159 480.63 315.96 481.657 315.96C482.191 315.96 482.698 316.012 483.18 316.117C483.662 316.222 484.159 316.394 484.672 316.635L483.965 318.316C483.683 318.19 483.411 318.08 483.149 317.986C482.887 317.892 482.63 317.819 482.379 317.766C482.138 317.714 481.887 317.688 481.625 317.688C481.28 317.688 481.018 317.735 480.84 317.829C480.672 317.923 480.588 318.065 480.588 318.253C480.588 318.389 480.63 318.515 480.714 318.63C480.808 318.735 480.981 318.85 481.232 318.976C481.494 319.101 481.876 319.269 482.379 319.478C482.871 319.677 483.295 319.887 483.651 320.107C484.007 320.316 484.28 320.583 484.468 320.908C484.667 321.222 484.767 321.635 484.767 322.148ZM487.485 320.405C487.485 320.059 487.532 319.751 487.626 319.478C487.721 319.206 487.872 318.949 488.082 318.709C488.302 318.468 488.59 318.222 488.946 317.97C489.26 317.74 489.511 317.536 489.7 317.358C489.899 317.18 490.04 317.002 490.124 316.824C490.218 316.646 490.265 316.447 490.265 316.227C490.265 315.892 490.139 315.641 489.888 315.473C489.647 315.295 489.307 315.206 488.867 315.206C488.427 315.206 487.993 315.274 487.564 315.41C487.134 315.546 486.694 315.73 486.244 315.96L485.412 314.279C485.925 313.997 486.48 313.766 487.077 313.588C487.673 313.41 488.328 313.321 489.04 313.321C490.129 313.321 490.972 313.583 491.569 314.106C492.176 314.63 492.48 315.295 492.48 316.101C492.48 316.531 492.412 316.902 492.276 317.216C492.139 317.531 491.935 317.824 491.663 318.096C491.391 318.358 491.05 318.641 490.642 318.944C490.338 319.164 490.103 319.353 489.935 319.51C489.768 319.667 489.653 319.819 489.59 319.965C489.537 320.112 489.511 320.295 489.511 320.515V320.97H487.485V320.405ZM487.234 323.594C487.234 323.112 487.365 322.777 487.626 322.588C487.888 322.389 488.207 322.29 488.584 322.29C488.951 322.29 489.265 322.389 489.527 322.588C489.789 322.777 489.92 323.112 489.92 323.594C489.92 324.054 489.789 324.389 489.527 324.599C489.265 324.798 488.951 324.897 488.584 324.897C488.207 324.897 487.888 324.798 487.626 324.599C487.365 324.389 487.234 324.054 487.234 323.594Z" fill="#001965"/>
<rect x="276.94" y="40.1614" width="177.414" height="49.5476" rx="15.707" fill="#E1EFFA"/>
<path d="M296.401 71.4352H294.061V60.2204H300.485V62.168H296.401V65.0581H300.202V67.0058H296.401V71.4352ZM304.833 62.8592V71.4352H302.493V62.8592H304.833ZM303.671 59.4978C304.016 59.4978 304.315 59.5816 304.566 59.7492C304.817 59.9062 304.943 60.2047 304.943 60.6445C304.943 61.0738 304.817 61.3722 304.566 61.5398C304.315 61.7073 304.016 61.7911 303.671 61.7911C303.315 61.7911 303.011 61.7073 302.76 61.5398C302.519 61.3722 302.398 61.0738 302.398 60.6445C302.398 60.2047 302.519 59.9062 302.76 59.7492C303.011 59.5816 303.315 59.4978 303.671 59.4978ZM309.619 62.278C309.619 62.6026 309.608 62.922 309.587 63.2361C309.566 63.5503 309.545 63.7963 309.524 63.9744H309.619C309.849 63.6183 310.158 63.3199 310.545 63.0791C310.933 62.8277 311.435 62.7021 312.053 62.7021C313.017 62.7021 313.797 63.0791 314.394 63.833C314.99 64.5765 315.289 65.676 315.289 67.1315C315.289 68.1053 315.148 68.9273 314.865 69.5975C314.593 70.2572 314.21 70.7546 313.718 71.0896C313.226 71.4247 312.65 71.5923 311.99 71.5923C311.362 71.5923 310.865 71.4823 310.498 71.2624C310.142 71.0321 309.849 70.7755 309.619 70.4928H309.462L309.069 71.4352H307.278V59.4978H309.619V62.278ZM311.299 64.5712C310.891 64.5712 310.566 64.655 310.325 64.8225C310.085 64.9901 309.907 65.2466 309.791 65.5922C309.687 65.9273 309.629 66.3514 309.619 66.8645V67.1158C309.619 67.943 309.739 68.5818 309.98 69.032C310.231 69.4718 310.682 69.6917 311.331 69.6917C311.812 69.6917 312.195 69.4718 312.477 69.032C312.76 68.5818 312.901 67.9378 312.901 67.1001C312.901 66.2623 312.755 65.6341 312.462 65.2152C312.179 64.7859 311.791 64.5712 311.299 64.5712ZM322.009 62.7021C322.124 62.7021 322.26 62.7073 322.417 62.7178C322.574 62.7283 322.7 62.744 322.794 62.7649L322.621 64.9639C322.548 64.943 322.438 64.9273 322.291 64.9168C322.155 64.8958 322.035 64.8854 321.93 64.8854C321.626 64.8854 321.333 64.9273 321.05 65.011C320.768 65.0843 320.511 65.2047 320.281 65.3723C320.061 65.5398 319.883 65.765 319.747 66.0477C319.621 66.3199 319.558 66.6603 319.558 67.0686V71.4352H317.218V62.8592H318.993L319.338 64.3042H319.448C319.616 64.011 319.825 63.744 320.077 63.5031C320.328 63.2623 320.616 63.0686 320.941 62.922C321.276 62.7754 321.632 62.7021 322.009 62.7021ZM331.834 67.1315C331.834 67.8435 331.735 68.477 331.536 69.032C331.348 69.587 331.07 70.0582 330.704 70.4457C330.348 70.8226 329.913 71.1106 329.4 71.3095C328.887 71.498 328.306 71.5923 327.656 71.5923C327.06 71.5923 326.505 71.498 325.991 71.3095C325.489 71.1106 325.054 70.8226 324.688 70.4457C324.321 70.0582 324.033 69.587 323.824 69.032C323.625 68.477 323.525 67.8435 323.525 67.1315C323.525 66.1786 323.693 65.3775 324.028 64.7283C324.363 64.0686 324.845 63.566 325.473 63.2204C326.101 62.8749 326.845 62.7021 327.704 62.7021C328.51 62.7021 329.222 62.8749 329.84 63.2204C330.457 63.566 330.944 64.0686 331.3 64.7283C331.656 65.3775 331.834 66.1786 331.834 67.1315ZM325.913 67.1315C325.913 67.6969 325.97 68.1734 326.086 68.5608C326.211 68.9378 326.405 69.2257 326.667 69.4247C326.929 69.6132 327.269 69.7074 327.688 69.7074C328.107 69.7074 328.442 69.6132 328.693 69.4247C328.955 69.2257 329.143 68.9378 329.259 68.5608C329.384 68.1734 329.447 67.6969 329.447 67.1315C329.447 66.566 329.384 66.0948 329.259 65.7178C329.143 65.3409 328.955 65.0581 328.693 64.8697C328.431 64.6812 328.091 64.5869 327.672 64.5869C327.054 64.5869 326.604 64.8016 326.321 65.2309C326.049 65.6498 325.913 66.2833 325.913 67.1315ZM339.753 68.8907C339.753 69.4666 339.617 69.9587 339.345 70.3671C339.072 70.765 338.664 71.0687 338.119 71.2781C337.575 71.4876 336.9 71.5923 336.093 71.5923C335.496 71.5923 334.983 71.5504 334.554 71.4666C334.125 71.3933 333.695 71.2677 333.266 71.0896V69.1577C333.727 69.3671 334.224 69.5399 334.758 69.676C335.292 69.8121 335.763 69.8802 336.172 69.8802C336.633 69.8802 336.957 69.8121 337.146 69.676C337.345 69.5399 337.444 69.3619 337.444 69.142C337.444 68.9954 337.402 68.8645 337.318 68.7493C337.245 68.6341 337.078 68.5032 336.816 68.3566C336.554 68.21 336.146 68.0215 335.591 67.7912C335.057 67.5608 334.617 67.3357 334.271 67.1158C333.926 66.8854 333.669 66.6131 333.502 66.299C333.334 65.9744 333.25 65.5712 333.25 65.0896C333.25 64.2937 333.559 63.6969 334.177 63.299C334.795 62.901 335.617 62.7021 336.643 62.7021C337.177 62.7021 337.685 62.7544 338.167 62.8592C338.648 62.9639 339.146 63.1366 339.659 63.3775L338.952 65.0581C338.669 64.9325 338.397 64.8225 338.135 64.7283C337.873 64.6341 337.617 64.5608 337.366 64.5084C337.125 64.456 336.873 64.4299 336.612 64.4299C336.266 64.4299 336.004 64.477 335.826 64.5712C335.659 64.6655 335.575 64.8068 335.575 64.9953C335.575 65.1314 335.617 65.2571 335.701 65.3723C335.795 65.477 335.968 65.5922 336.219 65.7178C336.481 65.8435 336.863 66.011 337.366 66.2205C337.858 66.4194 338.282 66.6288 338.638 66.8487C338.994 67.0582 339.266 67.3252 339.455 67.6498C339.654 67.9639 339.753 68.3776 339.753 68.8907ZM345.11 62.7021C345.906 62.7021 346.587 62.8539 347.152 63.1576C347.728 63.4613 348.173 63.9011 348.487 64.477C348.801 65.0529 348.958 65.7597 348.958 66.5974V67.7283H343.43C343.451 68.388 343.644 68.9064 344.011 69.2833C344.388 69.6603 344.906 69.8488 345.566 69.8488C346.121 69.8488 346.623 69.7964 347.074 69.6917C347.524 69.5765 347.99 69.4038 348.472 69.1734V70.9797C348.053 71.1891 347.608 71.341 347.136 71.4352C346.676 71.5399 346.115 71.5923 345.456 71.5923C344.597 71.5923 343.838 71.4352 343.178 71.1211C342.519 70.7965 342 70.3095 341.623 69.6603C341.246 69.0111 341.058 68.1943 341.058 67.21C341.058 66.2048 341.225 65.3723 341.56 64.7126C341.906 64.0424 342.382 63.5398 342.99 63.2047C343.597 62.8696 344.304 62.7021 345.11 62.7021ZM345.126 64.367C344.676 64.367 344.299 64.5136 343.995 64.8068C343.702 65.1 343.529 65.5555 343.477 66.1733H346.759C346.759 65.8278 346.697 65.5189 346.571 65.2466C346.456 64.9744 346.278 64.7597 346.037 64.6026C345.796 64.4456 345.492 64.367 345.126 64.367ZM361.989 71.4352L361.172 68.765H357.088L356.271 71.4352H353.711L357.669 60.1733H360.575L364.549 71.4352H361.989ZM359.79 64.1628C359.737 63.9848 359.669 63.7597 359.586 63.4874C359.502 63.2152 359.418 62.9377 359.334 62.655C359.251 62.3722 359.182 62.1262 359.13 61.9167C359.078 62.1262 359.004 62.3879 358.91 62.7021C358.826 63.0058 358.743 63.299 358.659 63.5817C358.586 63.8539 358.528 64.0477 358.486 64.1628L357.685 66.7702H360.607L359.79 64.1628ZM367.823 71.4352L364.556 62.8592H367.006L368.655 67.744C368.718 67.9325 368.771 68.1315 368.812 68.3409C368.865 68.5503 368.901 68.7545 368.922 68.9535C368.954 69.1524 368.975 69.3357 368.985 69.5032H369.048C369.058 69.3252 369.079 69.1367 369.111 68.9378C369.142 68.7388 369.179 68.5399 369.221 68.3409C369.273 68.1315 369.331 67.9325 369.394 67.744L371.043 62.8592H373.493L370.226 71.4352H367.823ZM378.242 62.6864C379.394 62.6864 380.273 62.9377 380.881 63.4403C381.498 63.9325 381.807 64.6916 381.807 65.7178V71.4352H380.174L379.718 70.2729H379.656C379.415 70.5766 379.163 70.8279 378.902 71.0268C378.65 71.2258 378.357 71.3671 378.022 71.4509C377.697 71.5452 377.294 71.5923 376.813 71.5923C376.31 71.5923 375.854 71.498 375.446 71.3095C375.048 71.1106 374.734 70.8122 374.504 70.4142C374.273 70.0059 374.158 69.4928 374.158 68.875C374.158 67.9639 374.477 67.2938 375.116 66.8645C375.755 66.4247 376.713 66.1838 377.991 66.1419L379.483 66.0948V65.7178C379.483 65.2676 379.362 64.9377 379.121 64.7283C378.891 64.5189 378.567 64.4142 378.148 64.4142C377.729 64.4142 377.32 64.477 376.923 64.6026C376.525 64.7178 376.127 64.8644 375.729 65.0424L374.959 63.456C375.42 63.2152 375.928 63.0267 376.483 62.8906C377.048 62.7544 377.635 62.6864 378.242 62.6864ZM378.572 67.4927C377.818 67.5137 377.294 67.6498 377.001 67.9011C376.708 68.1524 376.561 68.4823 376.561 68.8907C376.561 69.2467 376.666 69.5032 376.875 69.6603C377.085 69.8069 377.357 69.8802 377.692 69.8802C378.195 69.8802 378.619 69.7336 378.964 69.4404C379.31 69.1367 379.483 68.7126 379.483 68.1681V67.4613L378.572 67.4927ZM389.072 62.7021C389.994 62.7021 390.732 62.9534 391.287 63.456C391.842 63.9482 392.119 64.744 392.119 65.8435V71.4352H389.779V66.4247C389.779 65.8068 389.669 65.3461 389.449 65.0424C389.229 64.7283 388.878 64.5712 388.397 64.5712C387.685 64.5712 387.198 64.8173 386.936 65.3095C386.674 65.7911 386.543 66.4875 386.543 67.3985V71.4352H384.203V62.8592H385.994L386.308 63.9586H386.433C386.622 63.6655 386.852 63.4298 387.124 63.2518C387.397 63.0633 387.7 62.9272 388.035 62.8434C388.371 62.7492 388.716 62.7021 389.072 62.7021ZM398.013 71.5923C397.165 71.5923 396.442 71.4404 395.845 71.1368C395.249 70.8226 394.793 70.3409 394.479 69.6917C394.165 69.0425 394.008 68.21 394.008 67.1943C394.008 66.1472 394.186 65.2937 394.542 64.6341C394.898 63.9744 395.39 63.4874 396.018 63.1733C396.657 62.8592 397.39 62.7021 398.217 62.7021C398.804 62.7021 399.311 62.7597 399.741 62.8749C400.181 62.99 400.563 63.1262 400.887 63.2832L400.196 65.0896C399.83 64.943 399.484 64.8225 399.16 64.7283C398.845 64.6341 398.531 64.5869 398.217 64.5869C397.809 64.5869 397.469 64.6864 397.196 64.8854C396.924 65.0738 396.72 65.3618 396.584 65.7493C396.458 66.1262 396.395 66.6027 396.395 67.1786C396.395 67.744 396.463 68.2153 396.599 68.5922C396.746 68.9587 396.955 69.2362 397.228 69.4247C397.5 69.6027 397.83 69.6917 398.217 69.6917C398.709 69.6917 399.144 69.6289 399.521 69.5032C399.898 69.3671 400.264 69.1839 400.62 68.9535V70.9483C400.264 71.1787 399.887 71.341 399.489 71.4352C399.102 71.5399 398.61 71.5923 398.013 71.5923ZM399.694 73.3515C399.694 73.7389 399.62 74.0688 399.474 74.341C399.327 74.6237 399.081 74.8384 398.736 74.985C398.39 75.1316 397.919 75.2049 397.322 75.2049C397.092 75.2049 396.882 75.1892 396.694 75.1578C396.516 75.1264 396.353 75.0897 396.207 75.0478V73.7598C396.353 73.8017 396.531 73.8384 396.741 73.8698C396.961 73.9012 397.149 73.9169 397.306 73.9169C397.453 73.9169 397.578 73.8803 397.683 73.807C397.798 73.7441 397.856 73.6237 397.856 73.4457C397.856 73.2572 397.762 73.0897 397.573 72.9431C397.385 72.7965 397.055 72.6865 396.584 72.6132L397.181 71.4352H398.657L398.453 71.9064C398.662 71.9692 398.861 72.0635 399.05 72.1891C399.238 72.3253 399.39 72.4876 399.505 72.6761C399.631 72.8645 399.694 73.0897 399.694 73.3515ZM406.113 62.6864C407.265 62.6864 408.144 62.9377 408.751 63.4403C409.369 63.9325 409.678 64.6916 409.678 65.7178V71.4352H408.045L407.589 70.2729H407.526C407.285 70.5766 407.034 70.8279 406.772 71.0268C406.521 71.2258 406.228 71.3671 405.893 71.4509C405.568 71.5452 405.165 71.5923 404.683 71.5923C404.181 71.5923 403.725 71.498 403.317 71.3095C402.919 71.1106 402.605 70.8122 402.374 70.4142C402.144 70.0059 402.029 69.4928 402.029 68.875C402.029 67.9639 402.348 67.2938 402.987 66.8645C403.626 66.4247 404.584 66.1838 405.861 66.1419L407.354 66.0948V65.7178C407.354 65.2676 407.233 64.9377 406.992 64.7283C406.762 64.5189 406.437 64.4142 406.018 64.4142C405.6 64.4142 405.191 64.477 404.793 64.6026C404.395 64.7178 403.997 64.8644 403.6 65.0424L402.83 63.456C403.291 63.2152 403.799 63.0267 404.354 62.8906C404.919 62.7544 405.505 62.6864 406.113 62.6864ZM406.443 67.4927C405.689 67.5137 405.165 67.6498 404.872 67.9011C404.579 68.1524 404.432 68.4823 404.432 68.8907C404.432 69.2467 404.537 69.5032 404.746 69.6603C404.956 69.8069 405.228 69.8802 405.563 69.8802C406.066 69.8802 406.49 69.7336 406.835 69.4404C407.181 69.1367 407.354 68.7126 407.354 68.1681V67.4613L406.443 67.4927ZM414.791 71.5923C413.838 71.5923 413.058 71.2205 412.451 70.4771C411.854 69.7231 411.555 68.6184 411.555 67.1629C411.555 65.6969 411.859 64.5869 412.466 63.833C413.074 63.0791 413.87 62.7021 414.854 62.7021C415.262 62.7021 415.624 62.7597 415.938 62.8749C416.252 62.9796 416.519 63.1262 416.739 63.3147C416.969 63.5031 417.163 63.7178 417.32 63.9586H417.398C417.367 63.7911 417.33 63.5503 417.289 63.2361C417.247 62.9115 417.226 62.5817 417.226 62.2466V59.4978H419.566V71.4352H417.775L417.32 70.32H417.226C417.079 70.5504 416.891 70.765 416.66 70.964C416.44 71.1525 416.179 71.3043 415.875 71.4195C415.571 71.5347 415.21 71.5923 414.791 71.5923ZM415.608 69.7231C416.257 69.7231 416.713 69.5347 416.974 69.1577C417.236 68.7702 417.372 68.1943 417.383 67.4299V67.1786C417.383 66.3409 417.252 65.7021 416.99 65.2623C416.739 64.8225 416.268 64.6026 415.576 64.6026C415.063 64.6026 414.66 64.8278 414.367 65.278C414.074 65.7178 413.927 66.3566 413.927 67.1943C413.927 68.032 414.074 68.6655 414.367 69.0949C414.66 69.5137 415.074 69.7231 415.608 69.7231ZM425.532 62.6864C426.684 62.6864 427.563 62.9377 428.171 63.4403C428.788 63.9325 429.097 64.6916 429.097 65.7178V71.4352H427.464L427.008 70.2729H426.945C426.705 70.5766 426.453 70.8279 426.191 71.0268C425.94 71.2258 425.647 71.3671 425.312 71.4509C424.987 71.5452 424.584 71.5923 424.102 71.5923C423.6 71.5923 423.144 71.498 422.736 71.3095C422.338 71.1106 422.024 70.8122 421.793 70.4142C421.563 70.0059 421.448 69.4928 421.448 68.875C421.448 67.9639 421.767 67.2938 422.406 66.8645C423.045 66.4247 424.003 66.1838 425.28 66.1419L426.773 66.0948V65.7178C426.773 65.2676 426.652 64.9377 426.411 64.7283C426.181 64.5189 425.856 64.4142 425.438 64.4142C425.019 64.4142 424.61 64.477 424.212 64.6026C423.814 64.7178 423.417 64.8644 423.019 65.0424L422.249 63.456C422.71 63.2152 423.218 63.0267 423.773 62.8906C424.338 62.7544 424.924 62.6864 425.532 62.6864ZM425.862 67.4927C425.108 67.5137 424.584 67.6498 424.291 67.9011C423.998 68.1524 423.851 68.4823 423.851 68.8907C423.851 69.2467 423.956 69.5032 424.165 69.6603C424.375 69.8069 424.647 69.8802 424.982 69.8802C425.485 69.8802 425.909 69.7336 426.254 69.4404C426.6 69.1367 426.773 68.7126 426.773 68.1681V67.4613L425.862 67.4927ZM432.388 67.1472C432.388 66.8016 432.435 66.4927 432.529 66.2205C432.624 65.9482 432.776 65.6917 432.985 65.4508C433.205 65.21 433.493 64.9639 433.849 64.7126C434.163 64.4822 434.414 64.278 434.603 64.1C434.802 63.922 434.943 63.744 435.027 63.566C435.121 63.388 435.168 63.189 435.168 62.9691C435.168 62.634 435.043 62.3827 434.791 62.2152C434.55 62.0372 434.21 61.9481 433.77 61.9481C433.331 61.9481 432.896 62.0162 432.467 62.1523C432.037 62.2885 431.598 62.4717 431.147 62.7021L430.315 61.0214C430.828 60.7387 431.383 60.5083 431.98 60.3303C432.577 60.1523 433.231 60.0633 433.943 60.0633C435.032 60.0633 435.875 60.3251 436.472 60.8487C437.079 61.3722 437.383 62.0372 437.383 62.8434C437.383 63.2728 437.315 63.6445 437.179 63.9586C437.043 64.2728 436.838 64.566 436.566 64.8382C436.294 65.1 435.954 65.3828 435.545 65.6864C435.242 65.9063 435.006 66.0948 434.838 66.2519C434.671 66.4089 434.556 66.5608 434.493 66.7074C434.441 66.854 434.414 67.0372 434.414 67.2571V67.7126H432.388V67.1472ZM432.137 70.3357C432.137 69.854 432.268 69.5189 432.529 69.3305C432.791 69.1315 433.111 69.032 433.488 69.032C433.854 69.032 434.168 69.1315 434.43 69.3305C434.692 69.5189 434.823 69.854 434.823 70.3357C434.823 70.7965 434.692 71.1315 434.43 71.341C434.168 71.5399 433.854 71.6394 433.488 71.6394C433.111 71.6394 432.791 71.5399 432.529 71.341C432.268 71.1315 432.137 70.7965 432.137 70.3357Z" fill="#001965"/>
<rect x="23.6636" y="235.021" width="98.4141" height="49.5476" rx="15.707" fill="#E1EFFA"/>
<path d="M50.7268 266.295H47.711L42.8262 257.813H42.7633C42.7738 258.075 42.7843 258.342 42.7947 258.614C42.8052 258.876 42.8157 259.143 42.8262 259.415C42.8471 259.677 42.8628 259.944 42.8733 260.216C42.8837 260.478 42.8942 260.745 42.9047 261.017V266.295H40.7842V255.08H43.7843L48.6535 263.483H48.7006C48.6901 263.222 48.6796 262.965 48.6692 262.714C48.6587 262.452 48.6482 262.195 48.6378 261.944C48.6378 261.682 48.6325 261.426 48.6221 261.174C48.6116 260.913 48.6011 260.651 48.5906 260.389V255.08H50.7268V266.295ZM61.1638 261.991C61.1638 262.703 61.0643 263.337 60.8653 263.892C60.6768 264.447 60.3994 264.918 60.0329 265.305C59.6768 265.682 59.2423 265.97 58.7292 266.169C58.2161 266.358 57.6349 266.452 56.9857 266.452C56.3888 266.452 55.8338 266.358 55.3207 266.169C54.8181 265.97 54.3836 265.682 54.0171 265.305C53.6506 264.918 53.3626 264.447 53.1532 263.892C52.9542 263.337 52.8547 262.703 52.8547 261.991C52.8547 261.038 53.0223 260.237 53.3574 259.588C53.6924 258.928 54.1741 258.426 54.8024 258.08C55.4307 257.735 56.1742 257.562 57.0328 257.562C57.8391 257.562 58.5512 257.735 59.169 258.08C59.7868 258.426 60.2737 258.928 60.6297 259.588C60.9857 260.237 61.1638 261.038 61.1638 261.991ZM55.2422 261.991C55.2422 262.557 55.2998 263.033 55.415 263.421C55.5406 263.798 55.7344 264.086 55.9961 264.284C56.2579 264.473 56.5982 264.567 57.0171 264.567C57.436 264.567 57.771 264.473 58.0224 264.284C58.2841 264.086 58.4726 263.798 58.5878 263.421C58.7135 263.033 58.7763 262.557 58.7763 261.991C58.7763 261.426 58.7135 260.955 58.5878 260.578C58.4726 260.201 58.2841 259.918 58.0224 259.729C57.7606 259.541 57.4203 259.447 57.0014 259.447C56.3836 259.447 55.9333 259.661 55.6506 260.091C55.3783 260.51 55.2422 261.143 55.2422 261.991ZM67.8886 257.562C68.0038 257.562 68.1399 257.567 68.297 257.578C68.454 257.588 68.5797 257.604 68.6739 257.625L68.5012 259.824C68.4279 259.803 68.3179 259.787 68.1713 259.777C68.0352 259.756 67.9148 259.745 67.8101 259.745C67.5064 259.745 67.2132 259.787 66.9305 259.871C66.6477 259.944 66.3912 260.065 66.1608 260.232C65.9409 260.4 65.7629 260.625 65.6268 260.907C65.5011 261.18 65.4383 261.52 65.4383 261.928V266.295H63.0979V257.719H64.8728L65.2184 259.164H65.3283C65.4959 258.871 65.7053 258.604 65.9566 258.363C66.2079 258.122 66.4959 257.928 66.8205 257.782C67.1556 257.635 67.5116 257.562 67.8886 257.562ZM80.2987 257.562C81.2726 257.562 82.0056 257.813 82.4977 258.316C83.0004 258.808 83.2517 259.604 83.2517 260.703V266.295H80.9113V261.284C80.9113 260.667 80.8066 260.206 80.5972 259.902C80.3878 259.588 80.0631 259.431 79.6233 259.431C79.0055 259.431 78.5657 259.651 78.304 260.091C78.0422 260.53 77.9113 261.164 77.9113 261.991V266.295H75.5709V261.284C75.5709 260.876 75.5238 260.536 75.4296 260.263C75.3353 259.991 75.194 259.787 75.0055 259.651C74.817 259.504 74.5761 259.431 74.283 259.431C73.8536 259.431 73.5133 259.541 73.262 259.761C73.0107 259.981 72.8327 260.3 72.728 260.719C72.6232 261.138 72.5709 261.651 72.5709 262.258V266.295H70.2305V257.719H72.0211L72.3353 258.818H72.4609C72.6389 258.525 72.8588 258.29 73.1206 258.112C73.3824 257.923 73.6704 257.787 73.9845 257.703C74.3091 257.609 74.6337 257.562 74.9584 257.562C75.5866 257.562 76.1207 257.667 76.5605 257.876C77.0003 258.075 77.3354 258.389 77.5657 258.818H77.7699C78.0317 258.379 78.393 258.059 78.8537 257.86C79.3249 257.661 79.8066 257.562 80.2987 257.562ZM89.1799 257.546C90.3317 257.546 91.2113 257.797 91.8186 258.3C92.4365 258.792 92.7454 259.551 92.7454 260.578V266.295H91.1118L90.6563 265.133H90.5935C90.3526 265.436 90.1013 265.688 89.8396 265.887C89.5882 266.086 89.295 266.227 88.96 266.311C88.6353 266.405 88.2322 266.452 87.7505 266.452C87.2479 266.452 86.7924 266.358 86.384 266.169C85.9861 265.97 85.6719 265.672 85.4416 265.274C85.2112 264.866 85.096 264.353 85.096 263.735C85.096 262.824 85.4154 262.154 86.0542 261.724C86.6929 261.284 87.651 261.044 88.9285 261.002L90.4207 260.955V260.578C90.4207 260.127 90.3003 259.798 90.0595 259.588C89.8291 259.379 89.5045 259.274 89.0856 259.274C88.6668 259.274 88.2584 259.337 87.8605 259.462C87.4626 259.578 87.0646 259.724 86.6667 259.902L85.8971 258.316C86.3578 258.075 86.8657 257.886 87.4207 257.75C87.9861 257.614 88.5725 257.546 89.1799 257.546ZM89.5097 262.353C88.7558 262.373 88.2322 262.51 87.939 262.761C87.6458 263.012 87.4992 263.342 87.4992 263.75C87.4992 264.106 87.6039 264.363 87.8133 264.52C88.0228 264.667 88.295 264.74 88.6301 264.74C89.1327 264.74 89.5568 264.593 89.9024 264.3C90.2479 263.997 90.4207 263.572 90.4207 263.028V262.321L89.5097 262.353ZM97.4813 266.295H95.1409V254.358H97.4813V266.295ZM100.822 262.007C100.822 261.661 100.869 261.352 100.963 261.08C101.058 260.808 101.209 260.551 101.419 260.311C101.639 260.07 101.927 259.824 102.283 259.572C102.597 259.342 102.848 259.138 103.037 258.96C103.236 258.782 103.377 258.604 103.461 258.426C103.555 258.248 103.602 258.049 103.602 257.829C103.602 257.494 103.476 257.242 103.225 257.075C102.984 256.897 102.644 256.808 102.204 256.808C101.764 256.808 101.33 256.876 100.901 257.012C100.471 257.148 100.031 257.331 99.5811 257.562L98.7486 255.881C99.2617 255.598 99.8167 255.368 100.414 255.19C101.01 255.012 101.665 254.923 102.377 254.923C103.466 254.923 104.309 255.185 104.906 255.708C105.513 256.232 105.817 256.897 105.817 257.703C105.817 258.133 105.749 258.504 105.613 258.818C105.476 259.133 105.272 259.426 105 259.698C104.728 259.96 104.387 260.243 103.979 260.546C103.675 260.766 103.44 260.955 103.272 261.112C103.105 261.269 102.99 261.421 102.927 261.567C102.874 261.714 102.848 261.897 102.848 262.117V262.572H100.822V262.007ZM100.571 265.195C100.571 264.714 100.702 264.379 100.963 264.19C101.225 263.991 101.544 263.892 101.921 263.892C102.288 263.892 102.602 263.991 102.864 264.19C103.126 264.379 103.257 264.714 103.257 265.195C103.257 265.656 103.126 265.991 102.864 266.201C102.602 266.4 102.288 266.499 101.921 266.499C101.544 266.499 101.225 266.4 100.963 266.201C100.702 265.991 100.571 265.656 100.571 265.195Z" fill="#001965"/>
<circle cx="208.302" cy="294.13" r="57.8459" fill="#001965"/>
<path fill-rule="evenodd" clip-rule="evenodd" d="M214.088 304.632C210.249 307.699 205.381 309.18 200.484 308.77C195.588 308.361 191.034 306.092 187.758 302.429C184.481 298.767 182.732 293.989 182.869 289.077C183.005 284.165 185.018 279.492 188.492 276.017C191.967 272.543 196.64 270.531 201.552 270.394C206.464 270.257 211.242 272.007 214.904 275.283C218.567 278.559 220.836 283.113 221.245 288.01C221.655 292.906 220.174 297.774 217.106 301.613L231.79 316.293C231.999 316.489 232.168 316.725 232.285 316.987C232.401 317.249 232.464 317.531 232.469 317.818C232.474 318.105 232.421 318.39 232.314 318.656C232.207 318.922 232.047 319.163 231.844 319.366C231.641 319.569 231.399 319.729 231.133 319.836C230.868 319.944 230.583 319.996 230.296 319.991C230.009 319.986 229.726 319.924 229.464 319.807C229.202 319.69 228.966 319.522 228.771 319.312L214.088 304.632ZM191.519 300.183C189.429 298.093 188.005 295.43 187.428 292.531C186.851 289.631 187.147 286.626 188.277 283.895C189.407 281.163 191.322 278.828 193.779 277.185C196.236 275.541 199.125 274.663 202.081 274.661C205.038 274.659 207.928 275.533 210.387 277.174C212.846 278.814 214.764 281.146 215.898 283.876C217.032 286.606 217.332 289.611 216.759 292.511C216.185 295.411 214.765 298.076 212.678 300.169L212.664 300.183L212.65 300.195C209.845 302.993 206.044 304.564 202.082 304.561C198.12 304.559 194.321 302.985 191.519 300.183Z" fill="#E1EFFA"/>
</svg>
