<svg width="29" height="27" viewBox="0 0 29 27" fill="none" xmlns="http://www.w3.org/2000/svg">
<path d="M13.5 20.6668L9.5 18.6668M9.5 18.6668L1.5 22.6668V5.3335L9.5 1.3335M9.5 18.6668V1.3335M9.5 1.3335L17.5 5.3335M17.5 5.3335L25.5 1.3335V11.3335M17.5 5.3335V12.6668M22.8333 20.0002V20.0135M25.6613 22.8282C26.2209 22.2688 26.6019 21.5561 26.7564 20.7801C26.9108 20.0042 26.8317 19.1998 26.529 18.4689C26.2263 17.7379 25.7136 17.1131 25.0557 16.6735C24.3979 16.2339 23.6245 15.9993 22.8333 15.9993C22.0422 15.9993 21.2687 16.2339 20.6109 16.6735C19.9531 17.1131 19.4404 17.7379 19.1377 18.4689C18.835 19.1998 18.7558 20.0042 18.9103 20.7801C19.0647 21.5561 19.4458 22.2688 20.0053 22.8282C20.5627 23.3864 21.5053 24.2215 22.8333 25.3335C24.2351 24.1468 25.1778 23.3117 25.6613 22.8282Z" stroke="#E1EFFA" stroke-width="2.66667" stroke-linecap="round" stroke-linejoin="round"/>
</svg>
