<svg width="27" height="28" viewBox="0 0 27 28" fill="none" xmlns="http://www.w3.org/2000/svg">
<path d="M8.16667 26V24.6667C8.16667 23.9594 8.44762 23.2811 8.94772 22.781C9.44781 22.281 10.1261 22 10.8333 22H16.1667C16.8739 22 17.5522 22.281 18.0523 22.781C18.5524 23.2811 18.8333 23.9594 18.8333 24.6667V26M20.1667 11.3333H22.8333C23.5406 11.3333 24.2189 11.6143 24.719 12.1144C25.219 12.6145 25.5 13.2928 25.5 14V15.3333M1.5 15.3333V14C1.5 13.2928 1.78095 12.6145 2.28105 12.1144C2.78115 11.6143 3.45942 11.3333 4.16667 11.3333H6.83333M10.8333 15.3333C10.8333 16.0406 11.1143 16.7189 11.6144 17.219C12.1145 17.719 12.7928 18 13.5 18C14.2072 18 14.8855 17.719 15.3856 17.219C15.8857 16.7189 16.1667 16.0406 16.1667 15.3333C16.1667 14.6261 15.8857 13.9478 15.3856 13.4477C14.8855 12.9476 14.2072 12.6667 13.5 12.6667C12.7928 12.6667 12.1145 12.9476 11.6144 13.4477C11.1143 13.9478 10.8333 14.6261 10.8333 15.3333ZM17.5 4.66667C17.5 5.37391 17.781 6.05219 18.281 6.55229C18.7811 7.05238 19.4594 7.33333 20.1667 7.33333C20.8739 7.33333 21.5522 7.05238 22.0523 6.55229C22.5524 6.05219 22.8333 5.37391 22.8333 4.66667C22.8333 3.95942 22.5524 3.28115 22.0523 2.78105C21.5522 2.28095 20.8739 2 20.1667 2C19.4594 2 18.7811 2.28095 18.281 2.78105C17.781 3.28115 17.5 3.95942 17.5 4.66667ZM4.16667 4.66667C4.16667 5.37391 4.44762 6.05219 4.94772 6.55229C5.44781 7.05238 6.12609 7.33333 6.83333 7.33333C7.54058 7.33333 8.21885 7.05238 8.71895 6.55229C9.21905 6.05219 9.5 5.37391 9.5 4.66667C9.5 3.95942 9.21905 3.28115 8.71895 2.78105C8.21885 2.28095 7.54058 2 6.83333 2C6.12609 2 5.44781 2.28095 4.94772 2.78105C4.44762 3.28115 4.16667 3.95942 4.16667 4.66667Z" stroke="#E71E4B" stroke-width="2.66667" stroke-linecap="round" stroke-linejoin="round"/>
</svg>
