<svg width="25" height="25" viewBox="0 0 25 25" fill="none" xmlns="http://www.w3.org/2000/svg">
<path fill-rule="evenodd" clip-rule="evenodd" d="M10.8891 3.72475L10.8851 3.72875L10.8764 3.57275L10.8711 3.46742C10.8471 3.02742 10.8098 2.36075 10.5391 1.83409C10.3839 1.51845 10.1306 1.26161 9.81709 1.10209C9.47376 0.931421 9.08176 0.892754 8.66309 0.950088C8.29176 1.00142 7.96309 1.15009 7.70309 1.40209C7.44843 1.64875 7.29643 1.95809 7.21376 2.27409C7.05176 2.88609 7.12043 3.61809 7.28709 4.32275C7.62509 5.74675 8.44576 7.38942 9.36909 8.50675C9.72443 8.93675 9.83309 9.58475 9.83309 9.86409V11.3334L11.1664 11.6668V10.7901C11.7551 10.5714 12.1524 10.4714 12.5251 10.4634C12.8864 10.4568 13.2718 10.5354 13.8331 10.7674V11.6668L15.1664 11.3334V9.86409C15.1664 9.58475 15.2758 8.93742 15.6304 8.50675C16.5471 7.39675 17.4091 5.76142 17.7904 4.34142C17.9784 3.64075 18.0724 2.90942 17.9311 2.29475C17.8584 1.97742 17.7158 1.66209 17.4631 1.40942C17.2051 1.15209 16.8744 1.00142 16.5031 0.950088C16.0844 0.892754 15.6918 0.931421 15.3491 1.10209C15.0024 1.27542 14.7738 1.54742 14.6264 1.83409C14.3558 2.36075 14.3191 3.02742 14.2951 3.46742L14.2891 3.57275L14.2804 3.72875L14.2764 3.72475C13.9584 3.44142 13.5371 3.34475 13.2531 3.30342C13.0586 3.27665 12.8627 3.26218 12.6664 3.26009H12.4998C12.3035 3.26218 12.1075 3.27732 11.9131 3.30409C11.6284 3.34542 11.2078 3.44209 10.8891 3.72542M11.7758 4.72142L11.7958 4.70875L11.8331 4.69142V7.66675H13.1664V4.64142C13.2189 4.65253 13.2642 4.66498 13.3024 4.67875C13.3329 4.68968 13.3622 4.70376 13.3898 4.72075C13.6718 4.97209 13.9584 5.18409 14.2458 5.28075C14.4004 5.33209 14.5971 5.36475 14.8084 5.31275C15.0087 5.26332 15.1859 5.14658 15.3104 4.98209C15.5004 4.73542 15.5518 4.42075 15.5758 4.23142C15.5998 4.04475 15.6111 3.83009 15.6211 3.63475L15.6264 3.54009C15.6531 3.04275 15.6944 2.67342 15.8131 2.44342C15.8598 2.35142 15.9038 2.31542 15.9424 2.29675C15.9851 2.27475 16.0918 2.23942 16.3211 2.27075C16.4411 2.28742 16.4931 2.32542 16.5211 2.35275C16.5538 2.38609 16.5998 2.45342 16.6318 2.59275C16.7004 2.89275 16.6698 3.37275 16.5024 3.99609C16.1731 5.22475 15.4024 6.68942 14.6024 7.65809C14.1558 8.19809 13.9551 8.86142 13.8764 9.36009C13.4004 9.20142 12.9578 9.12142 12.4978 9.13075C12.0444 9.14009 11.6018 9.23675 11.1278 9.39075C11.0524 8.88875 10.8524 8.20942 10.3971 7.65742C9.60376 6.69742 8.87509 5.23942 8.58509 4.01542C8.43843 3.39542 8.42309 2.91542 8.50309 2.61409C8.54043 2.47275 8.59043 2.39875 8.63043 2.36009C8.66576 2.32675 8.72376 2.28742 8.84509 2.27075C9.07376 2.23942 9.18043 2.27475 9.22309 2.29609C9.26176 2.31542 9.30576 2.35142 9.35309 2.44342C9.47176 2.67342 9.51309 3.04275 9.53976 3.54009L9.54509 3.63475C9.55509 3.83009 9.56643 4.04475 9.58976 4.23142C9.61443 4.42075 9.66509 4.73542 9.85509 4.98209C9.96776 5.12875 10.1338 5.25809 10.3571 5.31275C10.5691 5.36475 10.7658 5.33209 10.9198 5.28009C11.2078 5.18409 11.4938 4.97209 11.7764 4.72009M12.4998 25.0001C13.207 25.0001 13.8853 24.7191 14.3854 24.219C14.8855 23.7189 15.1664 23.0407 15.1664 22.3334V20.8888L13.8331 19.4448V20.5434C13.2444 20.7621 12.8471 20.8621 12.4744 20.8701C12.1131 20.8768 11.7278 20.7981 11.1664 20.5661V19.4448L9.83309 20.8888V22.3334C9.83309 23.0407 10.114 23.7189 10.6141 24.219C11.1142 24.7191 11.7925 25.0001 12.4998 25.0001ZM12.4998 23.6668C12.1461 23.6668 11.807 23.5263 11.557 23.2762C11.3069 23.0262 11.1664 22.687 11.1664 22.3334V21.9874C11.6264 22.1368 12.0564 22.2121 12.5018 22.2028C12.9431 22.1934 13.3738 22.1021 13.8331 21.9554V22.3334C13.8331 22.687 13.6926 23.0262 13.4426 23.2762C13.1925 23.5263 12.8534 23.6668 12.4998 23.6668Z" fill="#E71E4B"/>
<path d="M3.83317 9.66683C4.00998 9.66683 4.17955 9.59659 4.30457 9.47157C4.4296 9.34654 4.49984 9.17697 4.49984 9.00016C4.49984 8.82335 4.4296 8.65378 4.30457 8.52876C4.17955 8.40373 4.00998 8.3335 3.83317 8.3335C3.65636 8.3335 3.48679 8.40373 3.36177 8.52876C3.23674 8.65378 3.1665 8.82335 3.1665 9.00016C3.1665 9.17697 3.23674 9.34654 3.36177 9.47157C3.48679 9.59659 3.65636 9.66683 3.83317 9.66683ZM5.83317 11.6668C5.83317 11.8436 5.76293 12.0132 5.63791 12.1382C5.51288 12.2633 5.34331 12.3335 5.1665 12.3335C4.98969 12.3335 4.82012 12.2633 4.6951 12.1382C4.57008 12.0132 4.49984 11.8436 4.49984 11.6668C4.49984 11.49 4.57008 11.3204 4.6951 11.1954C4.82012 11.0704 4.98969 11.0002 5.1665 11.0002C5.34331 11.0002 5.51288 11.0704 5.63791 11.1954C5.76293 11.3204 5.83317 11.49 5.83317 11.6668ZM3.83317 15.0002C4.00998 15.0002 4.17955 14.9299 4.30457 14.8049C4.4296 14.6799 4.49984 14.5103 4.49984 14.3335C4.49984 14.1567 4.4296 13.9871 4.30457 13.8621C4.17955 13.7371 4.00998 13.6668 3.83317 13.6668C3.65636 13.6668 3.48679 13.7371 3.36177 13.8621C3.23674 13.9871 3.1665 14.1567 3.1665 14.3335C3.1665 14.5103 3.23674 14.6799 3.36177 14.8049C3.48679 14.9299 3.65636 15.0002 3.83317 15.0002ZM7.83317 17.6668C7.83317 17.8436 7.76293 18.0132 7.63791 18.1382C7.51288 18.2633 7.34331 18.3335 7.1665 18.3335C6.98969 18.3335 6.82012 18.2633 6.6951 18.1382C6.57008 18.0132 6.49984 17.8436 6.49984 17.6668C6.49984 17.49 6.57008 17.3204 6.6951 17.1954C6.82012 17.0704 6.98969 17.0002 7.1665 17.0002C7.34331 17.0002 7.51288 17.0704 7.63791 17.1954C7.76293 17.3204 7.83317 17.49 7.83317 17.6668ZM4.49984 18.3335C4.67665 18.3335 4.84622 18.2633 4.97124 18.1382C5.09627 18.0132 5.1665 17.8436 5.1665 17.6668C5.1665 17.49 5.09627 17.3204 4.97124 17.1954C4.84622 17.0704 4.67665 17.0002 4.49984 17.0002C4.32303 17.0002 4.15346 17.0704 4.02843 17.1954C3.90341 17.3204 3.83317 17.49 3.83317 17.6668C3.83317 17.8436 3.90341 18.0132 4.02843 18.1382C4.15346 18.2633 4.32303 18.3335 4.49984 18.3335ZM7.83317 15.0002C7.83317 15.177 7.76293 15.3465 7.63791 15.4716C7.51288 15.5966 7.34331 15.6668 7.1665 15.6668C6.98969 15.6668 6.82012 15.5966 6.6951 15.4716C6.57008 15.3465 6.49984 15.177 6.49984 15.0002C6.49984 14.8234 6.57008 14.6538 6.6951 14.5288C6.82012 14.4037 6.98969 14.3335 7.1665 14.3335C7.34331 14.3335 7.51288 14.4037 7.63791 14.5288C7.76293 14.6538 7.83317 14.8234 7.83317 15.0002ZM9.83317 16.3335C10.01 16.3335 10.1796 16.2633 10.3046 16.1382C10.4296 16.0132 10.4998 15.8436 10.4998 15.6668C10.4998 15.49 10.4296 15.3204 10.3046 15.1954C10.1796 15.0704 10.01 15.0002 9.83317 15.0002C9.65636 15.0002 9.48679 15.0704 9.36177 15.1954C9.23674 15.3204 9.1665 15.49 9.1665 15.6668C9.1665 15.8436 9.23674 16.0132 9.36177 16.1382C9.48679 16.2633 9.65636 16.3335 9.83317 16.3335ZM20.4998 9.00016C20.4998 9.17697 20.5701 9.34654 20.6951 9.47157C20.8201 9.59659 20.9897 9.66683 21.1665 9.66683C21.3433 9.66683 21.5129 9.59659 21.6379 9.47157C21.7629 9.34654 21.8332 9.17697 21.8332 9.00016C21.8332 8.82335 21.7629 8.65378 21.6379 8.52876C21.5129 8.40373 21.3433 8.3335 21.1665 8.3335C20.9897 8.3335 20.8201 8.40373 20.6951 8.52876C20.5701 8.65378 20.4998 8.82335 20.4998 9.00016ZM19.8332 12.3335C19.6564 12.3335 19.4868 12.2633 19.3618 12.1382C19.2367 12.0132 19.1665 11.8436 19.1665 11.6668C19.1665 11.49 19.2367 11.3204 19.3618 11.1954C19.4868 11.0704 19.6564 11.0002 19.8332 11.0002C20.01 11.0002 20.1796 11.0704 20.3046 11.1954C20.4296 11.3204 20.4998 11.49 20.4998 11.6668C20.4998 11.8436 20.4296 12.0132 20.3046 12.1382C20.1796 12.2633 20.01 12.3335 19.8332 12.3335ZM20.4998 14.3335C20.4998 14.5103 20.5701 14.6799 20.6951 14.8049C20.8201 14.9299 20.9897 15.0002 21.1665 15.0002C21.3433 15.0002 21.5129 14.9299 21.6379 14.8049C21.7629 14.6799 21.8332 14.5103 21.8332 14.3335C21.8332 14.1567 21.7629 13.9871 21.6379 13.8621C21.5129 13.7371 21.3433 13.6668 21.1665 13.6668C20.9897 13.6668 20.8201 13.7371 20.6951 13.8621C20.5701 13.9871 20.4998 14.1567 20.4998 14.3335ZM17.8332 18.3335C17.6564 18.3335 17.4868 18.2633 17.3618 18.1382C17.2367 18.0132 17.1665 17.8436 17.1665 17.6668C17.1665 17.49 17.2367 17.3204 17.3618 17.1954C17.4868 17.0704 17.6564 17.0002 17.8332 17.0002C18.01 17.0002 18.1796 17.0704 18.3046 17.1954C18.4296 17.3204 18.4998 17.49 18.4998 17.6668C18.4998 17.8436 18.4296 18.0132 18.3046 18.1382C18.1796 18.2633 18.01 18.3335 17.8332 18.3335ZM19.8332 17.6668C19.8332 17.8436 19.9034 18.0132 20.0284 18.1382C20.1535 18.2633 20.323 18.3335 20.4998 18.3335C20.6766 18.3335 20.8462 18.2633 20.9712 18.1382C21.0963 18.0132 21.1665 17.8436 21.1665 17.6668C21.1665 17.49 21.0963 17.3204 20.9712 17.1954C20.8462 17.0704 20.6766 17.0002 20.4998 17.0002C20.323 17.0002 20.1535 17.0704 20.0284 17.1954C19.9034 17.3204 19.8332 17.49 19.8332 17.6668ZM17.8332 15.6668C17.6564 15.6668 17.4868 15.5966 17.3618 15.4716C17.2367 15.3465 17.1665 15.177 17.1665 15.0002C17.1665 14.8234 17.2367 14.6538 17.3618 14.5288C17.4868 14.4037 17.6564 14.3335 17.8332 14.3335C18.01 14.3335 18.1796 14.4037 18.3046 14.5288C18.4296 14.6538 18.4998 14.8234 18.4998 15.0002C18.4998 15.177 18.4296 15.3465 18.3046 15.4716C18.1796 15.5966 18.01 15.6668 17.8332 15.6668ZM14.4998 15.6668C14.4998 15.8436 14.5701 16.0132 14.6951 16.1382C14.8201 16.2633 14.9897 16.3335 15.1665 16.3335C15.3433 16.3335 15.5129 16.2633 15.6379 16.1382C15.7629 16.0132 15.8332 15.8436 15.8332 15.6668C15.8332 15.49 15.7629 15.3204 15.6379 15.1954C15.5129 15.0704 15.3433 15.0002 15.1665 15.0002C14.9897 15.0002 14.8201 15.0704 14.6951 15.1954C14.5701 15.3204 14.4998 15.49 14.4998 15.6668ZM12.4998 16.3335C12.6766 16.3335 12.8462 16.2633 12.9712 16.1382C13.0963 16.0132 13.1665 15.8436 13.1665 15.6668C13.1665 15.49 13.0963 15.3204 12.9712 15.1954C12.8462 15.0704 12.6766 15.0002 12.4998 15.0002C12.323 15.0002 12.1535 15.0704 12.0284 15.1954C11.9034 15.3204 11.8332 15.49 11.8332 15.6668C11.8332 15.8436 11.9034 16.0132 12.0284 16.1382C12.1535 16.2633 12.323 16.3335 12.4998 16.3335Z" fill="#E71E4B"/>
<path fill-rule="evenodd" clip-rule="evenodd" d="M18.6507 6.81684C19.054 5.81284 19.5973 5.05551 20.2587 4.63751C20.9553 4.19751 21.744 4.16684 22.4453 4.57084C23.1067 4.95084 23.6147 5.67084 23.956 6.58484C24.3007 7.51151 24.5 8.69951 24.5 10.1215V16.9128C24.5 17.4795 24.3907 18.7902 23.7553 19.9848C23.0953 21.2268 21.8633 22.3335 19.7307 22.3335C18.6673 22.3335 17.8733 22.0335 17.2293 21.5662C16.6527 21.1488 16.212 20.6048 15.8293 20.1328L15.752 20.0375C15.332 19.5215 14.96 19.0855 14.474 18.7642C14.0073 18.4555 13.4027 18.2335 12.5 18.2335C11.5973 18.2335 10.9927 18.4555 10.5267 18.7642C10.04 19.0848 9.668 19.5215 9.248 20.0375L9.17067 20.1335C8.788 20.6048 8.34733 21.1482 7.77067 21.5662C7.12667 22.0328 6.33267 22.3335 5.26933 22.3335C3.13667 22.3335 1.90467 21.2262 1.24467 19.9848C0.609333 18.7902 0.5 17.4788 0.5 16.9135V10.1215C0.5 8.69951 0.699333 7.51084 1.044 6.58551C1.38533 5.67017 1.89333 4.95084 2.554 4.57084C3.256 4.16684 4.04467 4.19751 4.74067 4.63751C5.402 5.05551 5.946 5.81284 6.34933 6.81684C6.452 7.07217 6.552 7.34751 6.65667 7.63551C7.00267 8.58417 7.39867 9.67217 8.09467 10.6455C8.95733 11.8508 10.2573 12.8255 12.5 12.8255C14.7427 12.8255 16.0427 11.8508 16.9053 10.6455C17.6013 9.67217 17.9973 8.58417 18.3433 7.63551C18.448 7.34751 18.5487 7.07217 18.6507 6.81684ZM7.01067 11.4208C8.08667 12.9255 9.768 14.1588 12.5 14.1588C15.232 14.1588 16.9133 12.9255 17.9893 11.4208C18.8047 10.2808 19.288 8.94884 19.636 7.98884C19.7287 7.73417 19.8113 7.50551 19.888 7.31351C20.2347 6.45151 20.6353 5.97684 20.9707 5.76551C21.2707 5.57617 21.5293 5.58151 21.7807 5.72617C22.074 5.89484 22.426 6.29817 22.7067 7.05084C22.9827 7.79217 23.1667 8.81617 23.1667 10.1215V16.9128C23.1667 17.3662 23.0707 18.4315 22.578 19.3595C22.1093 20.2402 21.2907 21.0002 19.7313 21.0002C18.948 21.0002 18.428 20.7882 18.0113 20.4868C17.582 20.1755 17.244 19.7595 16.832 19.2522L16.7867 19.1962C16.3733 18.6875 15.8867 18.0988 15.2087 17.6515C14.512 17.1915 13.6487 16.9002 12.5 16.9002C11.3513 16.9002 10.488 17.1908 9.79133 17.6515C9.114 18.0988 8.62733 18.6875 8.21333 19.1962L8.168 19.2522C7.756 19.7588 7.418 20.1755 6.988 20.4868C6.572 20.7882 6.052 21.0002 5.26933 21.0002C3.70933 21.0002 2.89067 20.2402 2.422 19.3588C1.92867 18.4322 1.83333 17.3655 1.83333 16.9128V10.1215C1.83333 8.81617 2.01733 7.79217 2.29333 7.05084C2.574 6.29817 2.92667 5.89484 3.21933 5.72617C3.47067 5.58151 3.72933 5.57617 4.02933 5.76551C4.364 5.97684 4.76533 6.45217 5.112 7.31351C5.18867 7.50551 5.272 7.73351 5.364 7.98817C5.712 8.94817 6.19533 10.2808 7.01067 11.4208Z" fill="#E71E4B"/>
</svg>
