<svg width="34" height="26" viewBox="0 0 34 26" fill="none" xmlns="http://www.w3.org/2000/svg">
<path d="M17.0679 13.3878V13.4065M22.3677 8.08789C23.7731 9.49365 24.5626 11.4 24.5626 13.3878C24.5626 15.3755 23.7731 17.2819 22.3677 18.6877M27.6695 2.78613C29.0618 4.17833 30.1662 5.83114 30.9197 7.65018C31.6732 9.46921 32.061 11.4189 32.061 13.3878C32.061 15.3567 31.6732 17.3063 30.9197 19.1254C30.1662 20.9444 29.0618 22.5972 27.6695 23.9894M11.7605 18.6877C10.3551 17.2819 9.56567 15.3755 9.56567 13.3878C9.56567 11.4 10.3551 9.49365 11.7605 8.08789M6.45498 23.9894C5.06271 22.5972 3.95829 20.9444 3.20479 19.1254C2.4513 17.3063 2.06348 15.3567 2.06348 13.3878C2.06348 11.4189 2.4513 9.46921 3.20479 7.65018C3.95829 5.83114 5.06271 4.17833 6.45498 2.78613" stroke="#E71E4B" stroke-width="3.74815" stroke-linecap="round" stroke-linejoin="round"/>
</svg>
