<svg width="27" height="28" viewBox="0 0 27 28" fill="none" xmlns="http://www.w3.org/2000/svg">
<path d="M25.5 26.1843L17.5 18.1843M1.5 11.5177C1.5 12.7433 1.74141 13.957 2.21046 15.0894C2.6795 16.2217 3.36699 17.2506 4.23367 18.1173C5.10035 18.984 6.12925 19.6715 7.26162 20.1405C8.39399 20.6096 9.60766 20.851 10.8333 20.851C12.059 20.851 13.2727 20.6096 14.405 20.1405C15.5374 19.6715 16.5663 18.984 17.433 18.1173C18.2997 17.2506 18.9872 16.2217 19.4562 15.0894C19.9253 13.957 20.1667 12.7433 20.1667 11.5177C20.1667 10.292 19.9253 9.07832 19.4562 7.94595C18.9872 6.81358 18.2997 5.78468 17.433 4.918C16.5663 4.05132 15.5374 3.36383 14.405 2.89478C13.2727 2.42574 12.059 2.18433 10.8333 2.18433C9.60766 2.18433 8.39399 2.42574 7.26162 2.89478C6.12925 3.36383 5.10035 4.05132 4.23367 4.918C3.36699 5.78468 2.6795 6.81358 2.21046 7.94595C1.74141 9.07832 1.5 10.292 1.5 11.5177Z" stroke="#E71E4B" stroke-width="2.66667" stroke-linecap="round" stroke-linejoin="round"/>
</svg>
